<?xml version="1.0" standalone="no"?>
<!DOCTYPE svg PUBLIC "-//W3C//DTD SVG 20010904//EN"
 "http://www.w3.org/TR/2001/REC-SVG-20010904/DTD/svg10.dtd">
<svg version="1.0" xmlns="http://www.w3.org/2000/svg"
 width="616.000000pt" height="616.000000pt" viewBox="0 0 616.000000 616.000000"
 preserveAspectRatio="xMidYMid meet">

<g transform="translate(0.000000,616.000000) scale(0.100000,-0.100000)"
fill="#000000" stroke="none">
<path d="M2297 6064 c-1 -1 -38 -4 -82 -7 -44 -3 -87 -8 -95 -11 -25 -10 -110
-14 -104 -4 3 4 0 8 -5 8 -6 0 -11 -4 -11 -8 0 -4 -8 -9 -17 -10 -10 -1 -36
-5 -58 -8 -22 -3 -53 -6 -70 -7 -16 -2 -40 -8 -52 -15 -12 -7 -29 -12 -37 -12
-9 0 -16 -5 -16 -11 0 -5 -4 -8 -9 -5 -5 3 -14 -1 -21 -9 -6 -7 -17 -12 -24
-9 -6 2 -31 -2 -55 -11 -24 -8 -53 -12 -65 -9 -14 3 -29 -3 -44 -16 -13 -12
-29 -19 -37 -16 -8 3 -17 1 -20 -4 -4 -6 -17 -10 -30 -10 -14 0 -40 -9 -60
-20 -20 -11 -46 -20 -58 -20 -12 0 -31 -7 -41 -15 -11 -8 -30 -15 -42 -15 -13
0 -26 -4 -29 -10 -3 -5 -19 -10 -36 -10 -16 0 -29 -5 -29 -11 0 -6 -9 -9 -20
-6 -11 3 -22 2 -25 -3 -3 -4 -37 -15 -77 -25 -40 -9 -80 -19 -88 -22 -8 -3
-26 -7 -40 -9 -14 -2 -34 -7 -45 -12 -40 -19 -104 -32 -147 -31 -25 1 -50 -1
-56 -5 -13 -8 -121 -24 -216 -31 -39 -3 -75 -10 -82 -16 -9 -7 -25 -6 -52 2
-30 9 -48 9 -72 0 -24 -8 -37 -8 -53 1 -32 18 -48 18 -63 3 -11 -10 -21 -11
-48 -3 -70 22 -66 51 -66 -475 0 -365 3 -476 13 -486 9 -11 9 -14 0 -18 -18
-7 -16 -68 3 -84 13 -11 17 -10 25 3 5 9 17 14 28 11 11 -3 21 2 24 11 4 9 2
16 -3 16 -6 0 -10 -4 -10 -10 0 -21 -16 -8 -31 25 -15 33 -15 35 0 33 9 -2 15
3 13 10 -1 8 2 11 8 7 5 -3 7 -17 4 -31 -3 -13 -4 -24 0 -24 6 0 40 60 41 73
0 4 4 6 10 5 10 -3 9 -34 -5 -87 -9 -33 -8 -33 21 -29 25 4 29 1 29 -18 0 -30
20 -41 27 -15 3 13 13 21 27 21 12 0 28 6 35 13 11 10 13 10 7 0 -5 -10 7 -13
48 -13 34 0 56 -4 56 -11 0 -6 7 -9 14 -6 10 4 13 1 9 -9 -3 -10 0 -12 10 -8
8 3 18 1 21 -5 5 -7 -20 -9 -74 -6 -44 2 -80 1 -80 -3 0 -14 15 -29 30 -29 8
0 41 -4 73 -8 43 -5 57 -4 57 5 0 10 3 10 15 0 15 -13 35 -14 313 -24 79 -3
148 -8 153 -12 13 -8 202 -27 288 -29 44 -1 66 -6 69 -15 3 -7 0 -10 -6 -6 -6
3 -14 1 -18 -5 -12 -19 -214 -3 -231 19 -11 14 -12 15 -7 1 4 -14 -3 -16 -48
-12 -29 2 -71 6 -93 8 -75 10 -220 25 -297 31 -58 5 -78 4 -78 -5 0 -7 -4 -10
-9 -7 -5 3 -12 -1 -15 -10 -9 -23 -8 -24 12 -24 11 0 24 -11 30 -25 10 -22 9
-25 -7 -25 -11 0 -21 5 -23 10 -2 6 -15 12 -29 14 -13 1 -29 5 -34 7 -6 3 -40
6 -78 8 -65 2 -67 1 -77 -25 -6 -15 -8 -29 -5 -32 3 -3 5 1 5 9 0 11 2 11 10
-1 5 -8 14 -16 20 -16 21 -3 22 -4 9 -20 -8 -10 -21 -13 -36 -9 -13 3 -23 1
-23 -5 0 -5 -7 -10 -15 -10 -8 0 -15 -5 -15 -11 0 -5 4 -8 9 -4 14 8 92 -6 86
-16 -3 -4 3 -13 12 -19 16 -10 16 -11 -2 -5 -11 4 -38 9 -60 12 -22 2 -45 9
-51 14 -6 5 -14 6 -17 2 -8 -7 42 -43 94 -67 19 -9 54 -28 79 -41 25 -13 54
-24 65 -24 11 -1 33 -8 48 -16 46 -24 97 -35 98 -22 0 7 5 2 11 -9 5 -12 27
-27 49 -33 21 -6 62 -23 91 -36 39 -18 54 -21 60 -12 5 8 8 8 8 1 0 -6 21 -19
48 -28 26 -10 71 -29 101 -44 35 -17 56 -22 58 -15 2 6 15 1 30 -13 15 -14 36
-26 47 -28 23 -4 68 -14 241 -51 61 -13 123 -26 139 -29 55 -10 37 -14 -46
-10 -46 2 -76 1 -68 -1 22 -7 382 -52 480 -61 73 -7 80 -9 50 -15 -25 -6 -19
-7 25 -4 33 2 54 1 47 -4 -6 -4 46 -13 116 -19 70 -7 177 -21 237 -31 145 -25
239 -39 301 -47 47 -6 52 -4 57 16 4 14 2 20 -6 17 -7 -2 -23 0 -37 5 -21 8
-23 11 -9 18 9 6 29 6 46 1 16 -5 48 -9 71 -9 23 0 46 -3 51 -7 5 -3 12 7 14
22 l4 28 2 -27 c1 -23 6 -28 29 -28 51 0 72 -11 72 -36 0 -13 -5 -24 -11 -24
-5 0 -7 -4 -4 -10 3 -5 15 -10 25 -10 15 0 20 10 26 47 5 38 9 44 15 28 6 -17
8 -16 10 10 2 28 2 28 6 5 6 -31 19 -40 58 -40 35 0 51 -10 49 -27 -1 -7 -2
-17 -3 -23 0 -5 -11 -11 -23 -11 -15 -1 -17 -3 -7 -6 14 -3 16 -27 15 -189 -1
-162 -3 -185 -18 -189 -22 -8 -29 -29 -18 -62 4 -15 11 -55 14 -88 3 -33 14
-98 25 -145 15 -66 20 -119 19 -240 0 -223 31 -361 119 -520 20 -36 54 -98 76
-139 l40 -73 -7 -87 c-10 -128 -20 -155 -68 -190 -23 -17 -49 -29 -58 -26 -9
3 -31 -2 -48 -11 -18 -8 -44 -15 -60 -14 -80 6 -92 1 -146 -54 -32 -32 -69
-59 -92 -66 -22 -7 -56 -23 -76 -36 -20 -13 -48 -26 -62 -30 -15 -3 -40 -19
-57 -35 -17 -15 -65 -45 -107 -65 -42 -20 -89 -45 -103 -55 -16 -12 -47 -19
-80 -20 -47 -2 -64 -9 -144 -63 -88 -60 -91 -61 -125 -49 -19 7 -48 10 -65 7
l-30 -6 23 17 c12 9 22 25 22 35 0 10 4 21 9 24 5 3 7 16 3 28 -4 16 -2 19 9
14 8 -4 5 0 -5 8 -19 15 -19 16 -1 16 10 0 15 3 12 7 -12 11 -58 -20 -52 -35
4 -12 3 -12 -9 -3 -8 7 -12 19 -9 27 8 21 -7 17 -34 -8 l-23 -21 -1 24 c0 21
-2 19 -14 -11 l-13 -35 -1 32 c-1 17 -6 35 -11 38 -6 4 -8 9 -6 13 11 18 -24
40 -81 52 -35 7 -63 18 -63 24 0 6 -12 13 -27 14 -19 1 -24 -1 -14 -7 9 -6 10
-11 2 -15 -14 -9 -51 2 -51 15 0 6 -7 6 -19 0 -10 -6 -21 -7 -25 -4 -3 4 -12
-2 -20 -12 -8 -11 -20 -16 -30 -12 -9 4 -16 2 -16 -3 0 -14 61 -50 85 -50 11
0 30 -7 42 -15 20 -14 22 -13 26 2 3 10 4 2 3 -17 -1 -34 1 -35 37 -38 20 -2
37 -7 37 -12 0 -10 -25 -20 -51 -20 -16 0 -19 -7 -19 -50 0 -38 4 -50 15 -50
8 0 15 5 15 10 0 6 -4 10 -9 10 -7 0 -8 16 -2 54 0 4 10 6 21 3 11 -3 20 -1
20 4 0 5 11 9 25 9 30 0 33 -24 8 -52 -15 -17 -15 -18 1 -18 9 0 20 -8 23 -18
4 -9 11 -21 17 -25 8 -6 7 -10 -1 -14 -7 -2 -13 -15 -13 -28 0 -47 -102 -98
-180 -90 -19 2 -44 4 -55 5 -17 0 -17 2 -5 10 8 5 49 10 90 10 80 0 104 8 91
28 -6 10 -15 10 -35 2 -15 -5 -29 -10 -31 -10 -2 0 -4 30 -4 68 -2 143 -1 142
-32 142 -26 0 -27 -2 -22 -40 5 -32 2 -41 -12 -46 -11 -5 -21 -1 -27 9 -5 10
-14 17 -21 17 -7 0 -18 9 -25 21 -9 14 -19 18 -32 14 -12 -4 -20 -2 -20 5 0 6
5 8 12 4 6 -4 8 -3 5 4 -14 22 -99 71 -114 65 -13 -5 -15 -1 -11 20 3 14 1 28
-3 29 -5 2 -6 14 -2 26 4 18 8 20 14 10 7 -10 9 -10 9 3 0 9 -10 21 -22 27
-22 11 -21 11 5 6 19 -4 27 -2 27 8 0 16 -46 23 -55 8 -4 -6 -16 -3 -30 6 -21
13 -23 20 -14 38 9 19 9 19 -4 4 -8 -10 -17 -15 -20 -11 -4 3 -7 1 -7 -5 0 -5
-3 -17 -6 -25 -4 -11 2 -16 22 -19 35 -4 41 -20 12 -33 -32 -14 -33 -37 -4
-72 14 -17 23 -33 20 -36 -7 -6 -20 3 -64 44 -26 24 -28 24 -39 7 -6 -11 -9
-23 -6 -27 2 -5 -2 -14 -9 -20 -12 -10 -16 -7 -22 11 -3 13 -12 26 -18 30 -6
5 -1 8 13 8 13 0 22 3 18 6 -3 3 -2 17 3 30 8 21 6 24 -13 25 -71 5 -88 9
-103 23 -24 25 -54 20 -54 -7 0 -24 32 -62 42 -52 3 3 8 -1 12 -10 3 -9 2 -13
-3 -10 -5 3 -12 1 -16 -5 -4 -6 -12 -7 -18 -4 -7 4 -9 4 -5 0 6 -8 -68 -81
-83 -81 -4 0 -10 -3 -14 -7 -4 -4 12 -6 36 -5 39 2 46 6 58 35 16 35 30 42 33
15 0 -10 2 -23 2 -30 1 -6 5 -15 9 -19 11 -12 8 -31 -5 -32 -41 -3 -109 -20
-90 -22 12 -1 27 -3 33 -4 7 0 15 -9 18 -19 10 -27 22 -26 33 3 l10 25 10 -27
c7 -20 20 -30 45 -37 36 -10 93 -56 93 -75 0 -5 -12 1 -28 15 l-27 24 23 -26
c15 -18 30 -25 43 -22 11 3 19 0 19 -6 0 -7 -4 -9 -10 -6 -5 3 -7 0 -4 -8 3
-8 -15 -55 -40 -103 -44 -86 -54 -91 -46 -19 5 42 8 50 20 47 6 -1 8 2 5 9
-10 14 -48 -23 -81 -78 -29 -49 -42 -58 -19 -12 13 25 14 33 4 45 -9 11 -9 18
-2 22 5 4 9 25 8 47 -2 48 8 84 19 67 10 -17 26 -15 26 3 0 9 7 18 15 21 8 4
15 10 15 15 0 4 -8 5 -17 2 -12 -5 -15 -2 -10 10 5 14 3 15 -13 7 -11 -6 -29
-14 -39 -20 -31 -15 -62 -3 -107 41 -23 23 -47 39 -52 35 -5 -3 -15 1 -22 9
-6 7 -18 11 -26 8 -8 -3 -14 0 -14 6 0 6 -4 11 -10 11 -5 0 -10 -7 -10 -15 0
-8 -5 -15 -11 -15 -7 0 -9 10 -5 25 5 21 2 25 -31 34 -21 6 -44 11 -51 11 -7
0 -36 16 -64 35 -42 28 -48 36 -34 41 10 4 33 0 52 -9 19 -9 35 -16 37 -15 7
4 91 -46 135 -82 48 -37 74 -44 34 -9 -9 9 -23 25 -30 35 -7 10 -10 12 -6 4 4
-9 -1 -7 -13 5 -11 11 -16 23 -11 26 5 3 2 12 -6 19 -9 7 -13 16 -10 22 3 5 1
14 -5 21 -5 7 -14 25 -20 39 -10 26 -10 27 22 16 18 -6 39 -20 49 -30 9 -10
18 -14 20 -9 1 6 13 12 25 14 12 2 26 7 30 12 5 4 3 5 -3 2 -6 -4 -19 0 -29 7
-16 12 -15 13 12 11 16 -1 35 -5 41 -9 7 -4 12 -2 12 3 0 6 -4 11 -10 11 -5 0
-10 4 -10 10 0 5 7 7 15 4 8 -4 15 -1 15 4 0 19 -42 26 -52 8 -12 -22 -35 -20
-43 4 -7 23 -25 27 -25 5 0 -9 -6 -12 -15 -9 -8 4 -15 15 -15 25 0 10 -3 19
-7 19 -8 0 -73 -73 -73 -82 0 -5 -11 -8 -24 -8 -14 0 -28 -4 -31 -10 -3 -5
-12 -10 -19 -10 -8 0 -12 16 -12 48 1 56 17 72 79 77 23 1 46 3 52 4 25 3 -37
29 -95 40 -36 7 -72 15 -81 17 -11 3 -19 -4 -23 -21 -7 -28 -21 -33 -30 -9 -3
8 -10 12 -16 9 -5 -3 -10 -1 -10 5 0 29 -18 -5 -24 -45 -4 -25 -11 -45 -17
-45 -26 0 -24 -3 -28 38 -1 9 -6 10 -20 3 -14 -8 -20 -7 -24 3 -3 7 -1 18 3
22 16 16 -6 35 -39 36 -20 1 -37 -6 -46 -18 -8 -11 -15 -14 -15 -6 0 19 -20
14 -20 -6 0 -10 -6 -24 -12 -31 -11 -10 -10 -12 2 -9 9 2 16 -6 18 -21 3 -17
0 -21 -10 -15 -28 18 -48 14 -48 -9 -1 -20 -2 -20 -11 -4 -5 9 -8 21 -5 26 6
9 -32 25 -49 21 -5 -2 -18 -2 -27 -2 -22 1 -48 -29 -31 -35 9 -3 10 -10 3 -24
-9 -16 -7 -21 15 -29 15 -6 30 -10 35 -10 5 0 26 -8 46 -17 35 -17 36 -17 50
1 8 11 16 18 18 15 2 -2 -4 -14 -15 -27 -13 -17 -24 -22 -39 -17 -29 9 -42 -2
-29 -26 10 -20 11 -20 25 -2 13 16 13 15 3 -9 -14 -33 -29 -36 -36 -8 -3 11
-10 17 -16 13 -6 -4 -8 2 -5 15 6 22 -17 39 -26 19 -3 -8 -9 -7 -19 6 -17 21
-31 22 -47 2 -7 -9 -15 -13 -18 -10 -3 3 2 13 11 23 15 17 13 18 -49 20 l-65
3 3 -33 c2 -26 7 -33 23 -31 41 5 51 -9 15 -22 l-35 -12 0 -166 c0 -91 2 -168
6 -171 3 -3 27 1 55 9 27 8 65 17 85 20 32 5 36 9 45 47 5 23 14 43 21 45 19
7 25 -52 9 -91 -19 -45 -5 -85 42 -120 29 -21 30 -25 16 -36 -9 -8 -35 -13
-62 -11 -31 1 -61 -5 -85 -18 -21 -11 -45 -17 -52 -15 -19 7 -7 34 19 44 18 7
15 9 -14 9 -23 0 -44 -8 -63 -24 -26 -24 -28 -29 -26 -99 2 -80 21 -111 33
-54 9 45 8 52 -7 40 -18 -15 -17 29 2 51 15 19 56 24 45 5 -5 -8 -2 -9 10 -5
10 4 29 10 43 13 21 6 24 4 21 -12 -3 -11 6 -33 18 -50 23 -32 22 -44 -4 -44
-9 0 -13 7 -9 20 3 11 -2 25 -10 32 -12 10 -18 9 -29 -7 -12 -16 -14 -16 -14
-3 0 9 -5 20 -11 24 -9 5 -10 -1 -5 -20 7 -30 -21 -87 -52 -106 -15 -10 -15
-12 5 -26 l23 -16 -30 -36 c-17 -20 -30 -46 -30 -57 0 -17 2 -18 11 -5 8 11 9
5 5 -24 -3 -21 -1 -48 5 -58 18 -33 38 -123 30 -131 -5 -5 -11 9 -15 31 -3 22
-12 45 -20 51 -12 10 -14 -5 -15 -104 l-1 -116 37 3 c30 2 39 8 41 25 2 12 10
24 18 27 11 4 12 2 4 -14 -19 -35 -12 -40 54 -40 58 0 64 2 70 23 9 35 7 40
-9 27 -12 -10 -15 -10 -15 3 0 9 4 18 10 22 5 3 7 13 4 23 -3 10 0 9 6 -4 6
-11 30 -29 53 -40 27 -12 42 -25 41 -36 -1 -15 13 -17 137 -17 l139 0 0 24 c0
35 21 84 28 65 3 -8 10 -18 16 -22 6 -4 0 -8 -14 -8 -21 -1 -22 -2 -8 -10 11
-7 26 -7 43 0 49 19 58 14 40 -20 l-16 -30 1901 0 c1265 0 1899 3 1895 10 -3
6 0 10 7 10 9 0 9 3 -2 10 -10 7 -11 12 -4 18 6 4 10 19 9 34 -1 15 3 26 9 25
5 -1 10 3 11 8 0 6 4 16 9 23 4 7 6 16 3 19 -3 3 -1 17 5 32 6 14 12 39 14 54
2 16 7 34 11 40 4 7 9 21 10 32 2 11 10 25 19 31 8 7 11 14 5 15 -7 3 -6 14 4
32 8 15 16 44 18 65 1 21 6 43 11 50 4 6 9 21 11 33 3 16 1 18 -9 10 -9 -8
-13 -7 -13 4 0 8 3 13 6 11 3 -2 15 0 26 4 l20 8 -20 8 c-11 5 -20 16 -20 24
0 9 -8 14 -20 13 -17 -1 -17 0 5 17 13 10 29 16 35 13 5 -4 6 -2 2 2 -11 13
-38 15 -31 3 4 -7 2 -8 -5 -4 -9 6 -9 11 1 24 11 13 11 14 -1 7 -11 -6 -13 -4
-8 8 4 11 1 17 -8 17 -8 0 -15 -5 -15 -11 0 -5 -4 -8 -9 -4 -6 3 -8 15 -6 27
6 30 -4 41 -23 26 -10 -8 -13 -8 -9 -1 4 6 1 14 -5 16 -10 4 -9 6 1 6 11 1 11
4 1 16 -10 12 -9 16 4 21 11 4 13 11 7 22 -9 17 -7 49 3 59 3 3 1 15 -5 26 -8
14 -8 18 0 13 15 -10 14 7 -1 23 -10 10 -10 15 -1 18 7 2 9 11 6 19 -3 8 1 14
8 15 8 0 5 4 -6 9 -11 5 -14 9 -7 9 6 1 12 10 12 22 0 12 -4 17 -11 13 -8 -4
-9 1 -3 17 4 13 7 36 7 52 1 15 5 27 11 27 6 0 3 5 -6 11 -22 12 -24 41 -3 33
8 -4 15 -1 15 5 0 6 -3 10 -8 8 -8 -2 -12 6 -12 26 0 9 3 8 9 -2 7 -11 11 -8
17 10 4 13 7 34 5 47 -1 12 1 22 6 22 12 0 8 73 -6 98 -6 12 -8 22 -3 22 6 0
17 12 27 26 9 15 12 24 7 20 -7 -4 -10 4 -8 21 2 16 5 28 6 28 1 0 3 12 4 28
2 34 -2 34 -14 2 -5 -14 -16 -25 -25 -25 -8 0 -15 -7 -15 -16 0 -8 -5 -12 -11
-8 -7 4 -7 10 -1 16 6 6 8 17 5 25 -5 13 -2 13 15 4 21 -11 21 -10 10 15 -7
14 -14 22 -16 16 -4 -13 -39 -4 -45 12 -7 18 8 41 17 27 4 -6 2 -11 -4 -11 -6
0 -9 -4 -5 -10 3 -5 12 -7 21 -3 13 5 13 7 -1 23 -20 22 -19 30 3 30 14 0 15
2 2 10 -13 8 -13 10 2 10 9 0 20 5 24 12 5 8 0 9 -17 5 l-24 -6 22 17 c16 12
20 21 14 31 -11 17 -45 6 -35 -11 4 -7 4 -10 0 -6 -5 4 -30 -20 -57 -52 -27
-32 -54 -62 -61 -66 -7 -4 -2 6 12 22 14 16 28 30 31 32 4 2 4 13 1 24 -4 17
-2 20 13 15 13 -6 16 -3 11 9 -4 11 1 18 15 21 11 3 25 16 30 29 4 13 16 24
24 24 13 0 14 4 5 20 -11 20 3 30 15 10 3 -6 11 -10 17 -10 5 0 0 8 -12 18
-23 19 -23 19 -3 33 11 8 21 19 22 24 3 21 24 80 30 85 19 14 51 81 45 92 -5
10 -4 10 6 1 11 -10 10 -17 -4 -38 -20 -31 -32 -80 -17 -71 5 4 3 -7 -5 -24
-9 -16 -19 -30 -24 -30 -5 0 -7 -7 -4 -15 5 -11 12 -7 32 17 15 18 28 35 28
40 1 4 2 12 3 18 0 5 8 7 16 4 11 -5 13 -2 9 10 -4 11 -2 16 7 14 9 -2 14 6
14 19 0 12 5 26 9 30 5 5 6 2 1 -6 -6 -10 -4 -12 4 -7 7 5 10 14 7 22 -5 13 6
19 27 15 5 -1 5 4 1 11 -14 22 -11 48 5 49 10 0 12 2 4 6 -7 2 -13 9 -13 14 0
6 5 7 10 4 6 -3 10 -1 10 4 0 6 -4 11 -9 11 -5 0 -8 18 -7 40 0 22 -2 40 -5
40 -4 0 -5 23 -2 51 4 37 1 54 -9 60 -11 7 -11 9 1 9 7 0 11 6 7 15 -3 8 -2
15 3 15 5 0 9 17 10 38 0 20 2 47 5 59 7 32 -13 95 -26 87 -7 -5 -9 -1 -5 9 3
10 3 17 -1 17 -4 0 -16 17 -27 37 -22 41 -61 83 -76 83 -6 0 -8 4 -4 9 3 6 -3
14 -12 20 -10 6 -13 11 -8 11 6 0 -3 9 -19 19 -17 11 -33 18 -38 15 -4 -3 -8
2 -8 10 0 8 -16 20 -35 27 -19 7 -37 19 -40 27 -4 12 -1 12 19 -1 21 -14 26
-14 36 -2 11 13 14 13 27 -2 11 -13 13 -14 10 -3 -2 8 -12 20 -23 25 -43 23
-47 27 -33 36 8 5 22 6 33 3 12 -4 16 -2 12 5 -4 6 0 11 9 11 10 0 13 5 9 12
-4 6 -3 8 3 5 6 -4 19 0 29 8 17 13 18 14 2 15 -10 0 -18 5 -18 11 0 5 -5 7
-12 3 -8 -5 -9 -2 -5 9 4 10 0 20 -11 26 -21 12 -14 19 26 30 22 7 29 6 26 -3
-6 -16 45 -44 88 -49 30 -3 35 -1 30 15 -3 12 1 18 12 18 15 0 15 3 1 30 -8
16 -16 33 -16 37 -4 22 -13 33 -29 33 -13 0 -16 -6 -12 -25 4 -21 1 -25 -21
-25 -28 0 -87 50 -87 73 0 8 12 19 26 25 14 7 22 17 19 22 -3 6 -2 10 3 10 9
0 32 43 32 60 0 6 -5 9 -11 7 -6 -1 -14 4 -16 11 -3 7 3 12 14 13 15 0 14 2
-5 9 -12 5 -25 17 -29 26 -4 11 -14 14 -32 10 -14 -3 -21 -3 -14 0 15 7 5 34
-10 28 -17 -6 -87 54 -81 70 3 7 -1 16 -9 19 -9 3 -13 18 -11 44 3 27 1 34 -6
23 -5 -8 -10 -10 -10 -5 0 6 -5 3 -10 -5 -5 -8 -10 -10 -11 -5 0 6 -2 18 -4
28 -2 11 -1 16 2 13 3 -3 12 2 20 10 9 8 18 12 21 9 4 -3 0 -10 -8 -15 -13 -8
-13 -10 1 -10 21 0 31 46 13 61 -7 6 -10 18 -7 26 4 11 2 14 -5 9 -8 -5 -12 1
-12 18 0 14 4 26 10 26 5 0 6 -7 3 -17 -5 -12 -3 -14 7 -8 8 5 11 4 7 -2 -4
-6 3 -19 16 -29 12 -10 16 -12 10 -4 -7 8 -13 20 -13 28 0 9 7 6 20 -9 10 -13
20 -22 20 -19 8 36 7 41 -7 36 -14 -6 -14 -4 -2 11 11 13 11 15 1 9 -8 -5 -19
-1 -28 10 -9 11 -12 12 -8 4 5 -11 4 -12 -4 -5 -7 6 -13 23 -14 37 -1 17 -7
24 -15 21 -8 -3 -13 0 -11 7 2 7 -4 15 -12 17 -12 4 -12 3 -1 -5 8 -6 9 -12 3
-16 -15 -9 -25 26 -10 36 9 6 5 7 -9 3 -23 -6 -27 3 -26 52 1 7 -4 10 -9 7 -6
-4 -8 2 -3 15 5 17 3 20 -11 14 -12 -5 -15 -3 -9 6 4 8 2 17 -5 21 -7 4 -9 13
-5 20 6 10 11 9 21 -5 8 -10 16 -17 18 -14 8 7 -6 59 -16 59 -5 0 -6 -6 -2
-12 5 -10 4 -10 -5 -2 -7 6 -13 21 -14 33 -1 20 -8 25 -33 22 -6 -1 -11 6 -11
14 0 18 3 18 25 6 14 -7 17 -4 17 14 0 15 -3 21 -9 15 -17 -17 -36 -11 -36 10
0 11 -4 20 -10 20 -5 0 -10 5 -10 10 0 17 24 6 34 -15 8 -18 9 -18 13 -2 3 9
10 17 16 17 7 0 6 4 -3 10 -13 9 -13 11 0 20 11 7 11 10 2 10 -7 0 -11 4 -7 9
3 5 0 13 -6 17 -9 5 -10 0 -7 -14 7 -27 0 -28 -18 -4 -17 22 -18 46 -1 36 6
-4 3 2 -7 15 -15 16 -22 19 -29 9 -6 -9 -7 -8 -3 5 3 11 0 17 -10 17 -8 0 -12
5 -9 10 5 8 11 8 19 1 7 -6 17 -7 21 -3 5 4 5 2 1 -5 -3 -6 -2 -14 4 -18 5 -3
10 1 10 10 0 9 -9 19 -20 22 -11 3 -17 9 -14 14 3 5 -2 6 -10 3 -9 -3 -16 -2
-16 3 0 5 6 10 13 10 6 0 19 2 27 4 8 2 14 -2 12 -9 -1 -8 2 -11 8 -7 8 5 8
11 1 19 -6 7 -8 16 -5 19 4 3 -6 9 -20 13 -15 3 -30 4 -33 1 -3 -3 -12 1 -20
9 -8 8 -19 12 -24 9 -5 -4 -9 1 -9 9 0 11 -10 16 -31 16 -18 0 -28 -4 -24 -10
4 -6 16 -8 28 -5 21 6 21 5 3 -9 -10 -8 -15 -19 -11 -25 3 -6 2 -11 -3 -11 -5
0 -12 10 -16 22 -4 18 -8 20 -18 10 -15 -15 -28 -16 -28 -2 0 6 7 10 15 10 27
0 16 17 -22 34 -21 9 -54 15 -73 13 -19 -2 -40 0 -46 5 -7 5 -16 2 -24 -7 -7
-8 -19 -15 -26 -15 -8 0 -11 -6 -8 -15 4 -8 1 -15 -5 -15 -10 0 -16 27 -12 58
2 11 -11 16 -31 13 -5 0 -8 3 -8 8 0 10 -42 27 -50 20 -3 -2 -4 -8 -2 -14 2
-5 -5 -2 -15 8 -22 19 -109 28 -106 11 3 -16 -45 -5 -51 12 -4 11 1 13 18 10
22 -4 23 -2 16 22 -8 31 -2 91 12 109 6 7 24 9 46 6 36 -5 36 -5 17 11 -14 12
-16 19 -8 22 10 4 10 11 2 26 -6 11 -8 22 -5 26 3 3 6 0 6 -7 0 -7 5 -9 10 -6
6 3 10 -5 10 -19 0 -14 5 -36 12 -50 9 -21 14 -23 25 -14 10 8 20 8 41 -2 73
-35 128 -49 175 -47 24 0 42 -4 47 -13 5 -8 12 -11 16 -7 4 3 2 13 -4 20 -7 8
-8 17 -4 22 4 4 -3 5 -14 1 -19 -6 -22 -3 -20 23 1 27 11 34 11 8 0 -7 9 -13
20 -15 11 -2 31 -14 45 -27 14 -13 40 -26 58 -30 18 -4 36 -13 39 -21 3 -8 20
-14 42 -14 l36 0 -30 -25 c-16 -14 -39 -24 -50 -24 -35 2 -61 -2 -47 -8 17 -7
15 -23 -4 -23 -8 0 -12 -4 -9 -10 3 -5 15 -10 25 -10 10 0 21 -6 23 -12 3 -7
6 -3 6 10 1 13 7 22 17 22 13 0 15 -7 11 -29 -5 -25 -3 -29 14 -28 15 1 19 7
17 26 -2 14 3 25 10 27 7 1 8 0 2 -3 -5 -2 -7 -10 -3 -16 4 -7 8 -18 8 -26 0
-8 9 -19 20 -25 11 -6 23 -15 27 -21 5 -7 8 -6 8 0 0 18 70 5 80 -15 5 -9 6
-20 3 -24 -3 -3 -2 -6 4 -6 6 0 14 16 18 36 7 38 -1 57 -14 35 -7 -10 -17 -9
-52 8 -44 20 -41 23 21 23 14 0 30 -1 35 -2 6 -2 18 0 28 5 11 4 23 3 29 -3 8
-8 15 -7 24 3 12 12 22 11 64 -7 44 -18 50 -24 50 -50 0 -28 -2 -30 -30 -26
-24 4 -30 1 -28 -11 5 -24 55 -23 62 2 5 19 29 21 26 2 -1 -6 9 -13 22 -16 13
-3 22 -11 20 -17 -2 -14 46 -16 67 -3 11 7 10 11 -5 21 -15 9 -15 10 -2 6 9
-2 19 2 22 10 3 8 13 14 22 14 10 0 14 -5 10 -15 -3 -9 0 -15 9 -15 8 0 15 -5
15 -11 0 -5 5 -7 10 -4 6 4 10 -8 10 -29 0 -20 -2 -36 -4 -36 -1 0 -17 5 -35
11 -25 9 -36 8 -56 -5 -17 -11 -23 -12 -19 -3 6 18 -31 36 -84 40 -39 4 -41 3
-27 -13 9 -10 25 -15 39 -13 15 3 31 -2 43 -14 10 -10 27 -25 38 -33 17 -14
18 -13 12 4 -6 16 -5 17 8 6 8 -7 12 -16 9 -21 -3 -5 1 -9 8 -10 7 0 28 -2 45
-3 18 -2 31 0 28 4 -7 12 38 21 49 10 6 -6 18 -10 28 -10 10 0 18 -4 18 -10 0
-15 27 -12 33 3 3 7 3 25 0 39 -4 22 -10 26 -36 24 -18 -2 -36 -4 -42 -6 -5
-1 -19 -2 -30 -1 -36 2 6 28 59 36 39 5 47 4 40 -7 -6 -11 -5 -11 8 0 13 10
17 10 21 0 2 -7 8 -9 13 -5 5 5 1 15 -10 23 -11 8 -16 14 -10 14 5 0 9 11 9
25 0 25 -18 32 -65 25 -17 -2 -31 -20 -24 -31 2 -4 0 -10 -6 -14 -5 -3 -10 -2
-10 2 0 5 -10 9 -21 10 -28 2 -35 11 -21 25 17 17 15 38 -3 38 -15 0 -32 46
-21 57 3 4 6 -1 6 -10 0 -9 5 -17 10 -17 19 0 10 39 -12 54 -12 9 -18 16 -12
16 20 0 54 -37 54 -59 0 -21 1 -21 16 -6 9 8 13 22 10 31 -3 8 -2 12 4 9 9 -5
9 4 1 44 -1 2 -7 -2 -15 -8 -10 -9 -16 -8 -26 4 -10 12 -10 15 4 15 13 0 15 4
7 18 -7 13 -7 22 1 30 8 8 6 10 -6 8 -23 -3 -37 -19 -39 -45 -1 -11 -5 -21
-10 -21 -4 0 -7 17 -5 38 2 23 8 36 16 34 10 -2 10 2 0 18 -11 17 -10 22 2 31
13 9 13 10 0 6 -8 -2 -26 2 -40 9 -14 7 -37 15 -52 19 -19 4 -28 12 -28 25 0
23 15 27 24 5 3 -8 11 -15 18 -14 10 0 10 2 1 6 -7 2 -13 11 -13 19 0 8 -4 14
-10 14 -5 0 -12 0 -15 0 -3 0 -14 9 -25 20 -11 11 -32 20 -46 20 -36 0 -71 20
-53 30 8 6 18 2 26 -8 8 -12 12 -13 13 -4 0 8 5 10 12 6 8 -5 9 -2 5 9 -9 23
-3 21 31 -10 16 -16 43 -39 60 -52 18 -13 32 -32 32 -42 0 -12 5 -16 15 -13 8
4 12 11 9 18 -3 6 2 2 10 -9 46 -59 56 -68 56 -48 1 13 15 3 49 -36 30 -33 53
-51 60 -46 9 5 9 10 0 21 -11 13 -9 13 17 1 64 -32 127 -58 131 -54 8 9 63
-48 63 -66 0 -10 5 -15 11 -12 6 4 8 14 5 22 -5 12 -1 14 20 9 18 -5 24 -3 19
5 -5 8 -1 9 16 4 31 -10 36 -18 33 -55 -1 -16 3 -30 8 -30 6 0 8 7 4 15 -5 14
11 21 37 16 5 -1 6 3 2 9 -3 5 -13 10 -21 10 -10 0 -12 5 -7 13 4 6 8 16 8 21
0 25 23 10 54 -34 25 -38 41 -51 67 -56 19 -3 41 -3 50 0 11 4 18 -1 21 -14 9
-36 37 -20 48 28 6 30 5 32 -19 32 -17 0 -26 5 -26 16 0 8 -4 13 -9 9 -5 -3
-12 -1 -16 5 -4 6 -11 8 -17 4 -5 -4 -8 2 -6 13 2 11 -3 27 -10 36 -11 13 -10
15 7 10 15 -4 21 -1 21 11 0 15 -12 21 -34 17 -5 -1 -6 6 -2 15 5 13 2 15 -13
11 -11 -3 -25 1 -31 8 -6 8 -17 12 -24 9 -21 -8 -40 25 -45 79 -1 4 -4 6 -8 6
-5 -1 -10 -1 -13 1 -3 1 -16 4 -30 6 -13 2 -27 9 -30 14 -3 5 -20 10 -37 12
-17 1 -29 6 -27 10 5 8 -3 10 -61 13 -16 1 -37 4 -45 7 -60 24 -121 18 -113
-12 7 -25 -17 -37 -32 -17 -7 10 -25 17 -41 17 -24 0 -26 2 -12 13 11 8 13 18
8 32 -7 17 -9 17 -9 3 -1 -10 -6 -18 -12 -18 -6 0 -8 7 -5 16 5 13 3 14 -7 6
-10 -9 -20 -3 -45 23 -17 19 -40 35 -51 35 -14 0 -19 5 -15 15 4 10 -3 16 -23
21 -15 4 -33 15 -40 24 -7 10 -33 23 -58 30 -25 7 -45 17 -45 21 0 5 -8 9 -18
9 -10 0 -25 9 -35 20 -16 19 -33 24 -70 20 -10 -1 -34 6 -53 15 -20 9 -43 13
-56 10 -13 -5 -18 -3 -14 3 4 6 -2 16 -13 22 -15 7 -22 7 -27 -2 -6 -9 -10 -5
-14 12 -4 14 -12 24 -19 22 -6 -1 -25 5 -42 14 -29 15 -30 15 -20 -5 14 -26
14 -38 0 -24 -6 6 -19 9 -28 5 -13 -5 -14 -3 -4 9 13 16 14 61 1 53 -11 -7
-10 10 2 22 14 14 -49 17 -66 3 -8 -6 -14 -8 -14 -4 0 4 -12 0 -26 -10 -19
-12 -29 -14 -37 -6 -8 8 -6 11 6 11 9 0 17 7 17 16 0 11 -6 14 -20 9 -11 -4
-20 -2 -20 4 0 6 -6 11 -14 11 -8 0 -16 7 -20 15 -3 8 -12 15 -21 15 -8 0 -15
5 -15 10 0 6 -6 10 -13 10 -13 0 -41 30 -43 46 -1 5 8 18 19 28 20 19 20 19
14 -12 -6 -32 9 -54 41 -59 9 -1 18 -7 20 -12 2 -6 8 -11 14 -11 6 0 8 7 4 15
-3 8 -1 15 4 15 6 0 10 -4 10 -10 0 -5 7 -7 15 -4 8 4 15 12 15 19 0 16 -35
26 -48 13 -6 -6 -12 -5 -17 3 -5 7 -4 10 3 5 7 -4 10 3 8 21 -2 18 -10 29 -22
32 -27 5 -45 21 -37 34 3 6 1 7 -6 3 -13 -9 -43 12 -36 24 3 5 -3 11 -14 15
-11 3 -25 13 -33 22 -9 12 -9 15 0 9 7 -4 12 -1 12 8 0 10 -6 13 -15 10 -8 -4
-15 -11 -15 -16 0 -6 -7 -5 -15 2 -9 7 -13 20 -10 28 4 10 0 12 -10 8 -9 -3
-14 -2 -10 3 8 14 -40 47 -91 62 -37 11 -47 19 -51 41 -4 20 -10 25 -25 23
-16 -3 -19 0 -15 15 5 21 -17 28 -28 10 -5 -7 -11 -8 -19 -1 -8 7 -12 5 -12
-8 0 -10 5 -17 11 -15 17 6 38 -13 30 -26 -6 -10 -11 -9 -22 5 -7 11 -13 14
-13 8 0 -17 26 -34 42 -28 9 4 15 0 15 -10 0 -8 -5 -15 -10 -15 -5 0 -4 -7 3
-15 14 -16 55 -21 45 -5 -3 5 0 7 8 4 20 -7 29 -54 11 -54 -8 0 -14 -4 -14 -9
0 -16 21 -24 32 -13 6 6 17 8 26 5 10 -4 13 -2 8 5 -4 7 -3 12 3 12 5 0 13 -5
16 -11 4 -6 13 -8 21 -5 25 10 40 -41 21 -72 -11 -16 -28 -6 -20 13 3 10 -1
15 -13 15 -16 0 -17 2 -4 10 11 7 11 10 2 10 -7 0 -10 5 -7 10 3 6 2 10 -4 10
-5 0 -13 -4 -16 -10 -6 -10 -61 -7 -73 4 -3 4 -1 16 6 26 13 21 4 27 -16 10
-6 -6 -10 -7 -7 -4 8 11 -27 32 -46 27 -19 -5 -33 -63 -15 -63 6 0 20 -12 30
-27 11 -14 15 -23 9 -20 -6 4 -14 1 -16 -5 -3 -8 -6 -6 -6 5 -1 10 -5 15 -11
12 -6 -3 -7 1 -4 9 6 17 -4 20 -30 10 -9 -3 -13 -10 -10 -15 3 -5 1 -9 -4 -9
-5 0 -9 12 -9 26 0 18 2 22 8 13 7 -12 9 -11 10 1 1 8 1 18 0 23 0 4 3 7 9 7
5 0 7 16 5 35 -4 27 -2 33 10 29 8 -4 15 -1 15 5 0 6 -4 11 -8 11 -12 0 -41
71 -35 86 3 9 13 12 24 9 11 -4 19 -2 19 4 0 6 -7 11 -15 11 -8 0 -15 7 -15
16 0 8 5 12 10 9 6 -3 10 -2 10 3 0 15 -49 32 -95 32 -42 0 -45 -2 -45 -26 0
-14 -4 -23 -10 -19 -6 3 -15 -6 -20 -21 -8 -20 -8 -29 1 -34 8 -6 8 -9 0 -14
-6 -4 -15 4 -21 20 -6 15 -13 31 -16 35 -3 5 2 6 10 3 15 -6 21 6 17 30 -1 5
5 6 14 3 11 -5 15 0 15 16 0 28 -18 47 -36 40 -8 -3 -14 1 -14 11 0 9 -7 16
-15 16 -8 0 -15 -4 -15 -10 0 -19 -21 -10 -30 13 -5 12 -9 17 -9 10 -1 -6 -10
-9 -21 -6 -10 3 -18 8 -18 12 4 14 -24 51 -38 51 -8 0 -13 4 -9 9 3 5 1 12 -5
16 -6 4 -8 11 -4 16 3 5 2 9 -3 8 -19 -3 -34 2 -29 10 3 4 -6 13 -19 19 -17 8
-26 8 -31 0 -4 -7 -10 -5 -16 6 -5 9 -16 16 -24 16 -15 0 -15 -45 0 -81 4 -9
1 -23 -8 -32 -10 -9 -19 -50 -26 -108 -6 -52 -12 -107 -15 -123 -4 -23 -2 -27
12 -22 16 6 16 6 0 -12 -9 -10 -17 -26 -17 -34 0 -20 -47 -52 -55 -38 -3 6 -1
10 6 10 7 0 9 10 6 26 -3 18 -1 24 9 20 16 -6 20 10 29 99 3 33 11 91 16 129
7 54 7 71 -3 78 -10 6 -10 10 1 17 8 5 11 16 6 30 -4 12 -2 21 4 21 6 0 11 6
11 14 0 15 -78 56 -114 60 -30 4 -57 17 -51 26 2 4 -7 6 -20 4 -14 -1 -44 8
-68 20 -48 25 -124 36 -112 15 6 -8 4 -10 -4 -5 -7 5 -10 14 -7 21 6 16 -16
25 -82 31 -68 8 -76 9 -89 17 -6 4 -15 3 -18 -3 -5 -8 -11 -7 -21 1 -11 9 -14
8 -14 -2 0 -9 -3 -10 -8 -4 -6 8 -117 17 -125 9z m593 -165 c0 -14 -17 -10
-23 5 -4 10 -1 13 9 9 7 -3 14 -9 14 -14z m74 -65 c3 -8 2 -12 -4 -9 -6 3 -10
10 -10 16 0 14 7 11 14 -7z m151 -104 c3 -6 -1 -7 -9 -4 -18 7 -21 14 -7 14 6
0 13 -4 16 -10z m53 -35 c-3 -3 -9 2 -12 12 -6 14 -5 15 5 6 7 -7 10 -15 7
-18z m4 -38 c-4 -14 -7 -16 -13 -5 -12 19 -11 25 5 25 8 0 11 -8 8 -20z m158
-29 c0 -15 -15 -8 -28 12 -12 19 -11 20 8 8 11 -7 20 -16 20 -20z m-65 -38
c-2 -16 1 -32 6 -35 11 -8 12 -25 1 -25 -5 0 -13 16 -19 35 -8 23 -8 35 -1 35
6 0 7 7 4 16 -3 8 -2 12 4 9 5 -3 7 -19 5 -35z m45 16 c0 -3 -4 -8 -10 -11 -5
-3 -10 -1 -10 4 0 6 5 11 10 11 6 0 10 -2 10 -4z m180 -31 c0 -19 -30 -27 -43
-12 -22 23 -17 33 14 29 16 -2 29 -10 29 -17z m-280 1 c0 -3 -4 -8 -10 -11 -5
-3 -10 -1 -10 4 0 6 5 11 10 11 6 0 10 -2 10 -4z m130 -25 c0 -6 -4 -13 -10
-16 -5 -3 -10 1 -10 9 0 9 5 16 10 16 6 0 10 -4 10 -9z m93 -15 c20 -19 23
-25 12 -30 -20 -7 -19 -22 2 -30 15 -6 36 11 28 24 -1 3 4 11 12 19 13 12 14
11 8 -8 -4 -13 -1 -28 7 -38 11 -14 10 -15 -10 -9 -12 4 -22 4 -22 -1 0 -13
14 -30 29 -35 11 -3 9 -10 -10 -29 -13 -13 -23 -28 -21 -32 1 -5 -3 -5 -10 -1
-10 6 -11 4 0 -7 14 -16 16 -33 2 -24 -5 3 -10 -2 -10 -12 0 -13 -3 -14 -8 -5
-10 15 -9 63 1 79 8 12 -21 26 -44 21 -8 -2 -13 3 -11 10 1 8 -2 11 -7 8 -5
-4 -12 -3 -15 2 -2 4 4 13 15 20 19 12 25 6 20 -21 -1 -5 3 -6 8 -3 5 3 8 17
6 31 -1 14 1 28 5 30 11 7 0 45 -12 42 -6 -1 -13 4 -15 11 -7 20 12 14 40 -12z
m-126 -18 c-3 -7 -5 -2 -5 12 0 14 2 19 5 13 2 -7 2 -19 0 -25z m-57 8 c0 -8
-4 -18 -10 -21 -5 -3 -10 -4 -10 -1 0 2 -3 11 -6 20 -4 11 -1 16 10 16 9 0 16
-6 16 -14z m-87 -3 c-7 -2 -19 -2 -25 0 -7 3 -2 5 12 5 14 0 19 -2 13 -5z m41
-42 c-7 -7 -34 21 -28 31 3 5 12 1 19 -9 7 -10 12 -20 9 -22z m86 29 c0 -5 -2
-10 -4 -10 -3 0 -8 5 -11 10 -3 6 -1 10 4 10 6 0 11 -4 11 -10z m55 -20 c8 0
11 -7 8 -20 -3 -11 -8 -20 -12 -20 -10 0 -37 20 -27 20 5 0 2 8 -5 17 -10 11
-10 14 -1 9 7 -4 12 -2 13 6 0 10 2 10 6 1 2 -7 11 -13 18 -13z m-70 -8 c-3
-3 -11 0 -18 7 -9 10 -8 11 6 5 10 -3 15 -9 12 -12z m-44 -125 c-6 -6 -16 -4
-26 7 -15 15 -15 16 0 16 10 0 14 5 10 13 -4 6 1 3 9 -7 10 -13 13 -23 7 -29z
m162 31 c-4 -7 -8 -17 -8 -22 0 -5 -7 -11 -15 -13 -12 -4 -12 -3 -2 5 8 5 13
12 13 16 -3 19 0 26 10 26 6 0 7 -5 2 -12z m-580 -10 c15 -12 15 -14 -8 -25
-14 -6 -23 -7 -20 -3 3 5 1 11 -5 15 -11 7 -4 25 9 25 4 0 15 -6 24 -12z
m-813 -9 c0 -5 -9 -9 -19 -9 -11 0 -22 4 -25 9 -3 5 6 9 19 9 14 0 25 -4 25
-9z m1170 -9 c0 -5 -2 -10 -4 -10 -3 0 -8 5 -11 10 -3 6 -1 10 4 10 6 0 11 -4
11 -10z m130 -11 c-13 -23 -32 -21 -36 4 -2 12 5 17 22 17 22 0 23 -2 14 -21z
m-1580 -19 c0 -5 -11 -10 -24 -10 -14 0 -28 5 -31 10 -4 6 7 10 24 10 17 0 31
-4 31 -10z m1513 -5 c4 -8 3 -16 -1 -19 -4 -3 -9 4 -9 15 -2 23 3 25 10 4z
m604 -11 c-1 0 -14 -4 -29 -8 -22 -5 -27 -3 -25 12 1 16 5 17 29 8 15 -5 26
-11 25 -12z m-627 6 c0 -5 -5 -10 -11 -10 -5 0 -7 5 -4 10 3 6 8 10 11 10 2 0
4 -4 4 -10z m450 0 c0 -5 -2 -10 -4 -10 -3 0 -8 5 -11 10 -3 6 -1 10 4 10 6 0
11 -4 11 -10z m-56 -26 c3 -7 14 -10 25 -7 15 4 22 -1 26 -20 4 -14 4 -31 0
-38 -8 -12 11 -29 34 -29 11 0 9 5 -5 21 -19 22 -19 22 2 11 11 -6 27 -19 35
-28 8 -10 9 -15 2 -11 -6 4 -14 3 -18 -3 -3 -5 -23 -1 -50 12 -36 18 -42 25
-35 39 10 18 -10 45 -23 32 -4 -3 -7 -1 -7 6 0 7 -8 11 -17 10 -28 -2 -43 0
-43 9 0 12 69 9 74 -4z m-1798 -1 c-15 -4 -16 -7 -5 -14 9 -6 0 -9 -28 -9 -50
0 -58 17 -10 23 46 5 65 6 43 0z m1580 -8 c-3 -8 3 -19 13 -25 10 -5 21 -19
24 -30 5 -18 3 -19 -10 -8 -13 11 -17 11 -21 0 -3 -10 -7 -10 -20 0 -14 11
-15 10 -9 -6 6 -16 5 -17 -8 -6 -21 18 -19 28 7 26 29 -1 34 20 6 28 -22 6
-23 7 -4 21 25 19 30 19 22 0z m454 11 c0 -2 -7 -6 -15 -10 -8 -3 -15 -1 -15
4 0 6 7 10 15 10 8 0 15 -2 15 -4z m-592 -25 c10 -6 9 -11 -4 -22 -14 -11 -16
-11 -10 0 5 8 3 17 -5 22 -8 5 -9 9 -4 9 6 0 16 -4 23 -9z m642 -16 c0 -20
-38 -29 -56 -14 -12 10 -17 10 -23 0 -6 -9 -11 -8 -22 5 -12 16 -12 17 2 12 9
-3 22 -2 30 2 8 5 16 5 20 -1 3 -5 13 -7 22 -3 9 3 14 11 10 17 -3 6 -1 7 5 3
7 -4 12 -13 12 -21z m-130 -30 c0 -8 -2 -15 -4 -15 -2 0 -6 7 -10 15 -3 8 -1
15 4 15 6 0 10 -7 10 -15z m-598 -19 c7 4 8 3 4 -4 -5 -8 1 -12 18 -12 28 0
76 -19 76 -30 0 -6 -100 -5 -107 1 -5 3 -22 6 -38 8 -12 1 -13 5 -6 20 6 10 7
22 3 26 -4 4 3 2 16 -4 12 -7 28 -9 34 -5z m-82 -7 c0 -5 -4 -7 -10 -4 -5 3
-10 -3 -10 -14 0 -12 -6 -21 -13 -21 -16 0 -37 20 -37 35 0 5 4 3 10 -5 8 -12
10 -12 16 3 7 18 44 24 44 6z m401 -3 c10 6 13 -9 3 -19 -9 -9 -33 16 -26 28
3 5 7 4 10 -3 2 -7 8 -10 13 -6z m-481 -12 c0 -3 -12 -9 -26 -15 -29 -10 -72
-2 -58 11 16 15 84 18 84 4z m-140 -16 c0 -13 -23 -5 -28 10 -2 7 2 10 12 6 9
-3 16 -11 16 -16z m664 -10 c-3 -4 2 -8 10 -8 8 0 18 -5 22 -11 4 -8 -1 -9
-16 -4 -18 6 -22 4 -17 -8 3 -10 -1 -17 -14 -20 -16 -4 -19 0 -19 24 0 34 21
63 32 46 4 -6 4 -15 2 -19z m289 -50 c24 -25 40 -23 32 5 -6 21 -6 21 11 -3
10 -14 23 -29 28 -33 14 -10 -64 3 -84 14 -8 5 -10 9 -3 9 6 0 -2 14 -18 31
-16 17 -33 28 -38 25 -5 -4 -13 -1 -17 5 -3 6 -1 15 6 19 8 5 22 -3 39 -23 14
-17 34 -39 44 -49z m-3523 58 c0 -8 -51 -13 -56 -5 -3 5 9 9 25 9 17 0 31 -2
31 -4z m3019 -17 c8 12 12 12 25 2 9 -7 14 -17 11 -21 -3 -5 8 -11 24 -15 31
-7 32 -14 11 -57 -10 -22 -16 -25 -26 -17 -8 6 -12 15 -9 19 3 4 -1 7 -8 6 -6
0 -13 3 -14 8 -1 5 -7 13 -15 17 -9 6 -9 9 -1 9 6 0 15 -4 18 -10 8 -12 45
-13 45 -1 0 5 -7 12 -16 15 -8 3 -12 2 -9 -4 3 -6 1 -10 -4 -10 -6 0 -11 5
-11 10 0 6 -5 10 -11 10 -14 0 -49 39 -49 53 0 6 7 2 15 -9 12 -16 16 -17 24
-5z m-541 -20 c28 -2 -30 -17 -63 -17 l-30 0 30 8 c17 4 24 8 16 9 -11 1 -10
5 5 15 16 13 19 13 22 0 2 -8 11 -14 20 -15z m90 -2 c18 -3 13 -4 -16 -6 -40
-1 -42 0 -30 19 10 16 14 17 16 6 2 -8 15 -17 30 -19z m312 -1 c0 -6 4 -4 10
4 7 12 12 12 34 0 29 -15 35 -40 10 -40 -8 0 -12 4 -9 10 3 6 -1 7 -9 4 -9 -3
-13 -11 -9 -18 4 -6 1 -6 -9 2 -13 10 -17 9 -23 -10 -4 -13 -7 -26 -6 -29 0
-4 -17 -9 -39 -11 -35 -3 -38 -2 -24 13 12 14 12 16 -7 15 -12 -1 -23 5 -25
12 -1 7 0 8 3 2 8 -16 23 -12 17 5 -5 11 -2 14 12 9 16 -6 17 -5 7 7 -18 18
-16 27 7 34 11 4 18 11 15 16 -4 5 5 4 19 -3 14 -6 26 -16 26 -22z m-165 -16
c3 -6 -1 -7 -9 -4 -18 7 -21 14 -7 14 6 0 13 -4 16 -10z m75 0 c0 -5 -4 -10
-9 -10 -6 0 -13 5 -16 10 -3 6 1 10 9 10 9 0 16 -4 16 -10z m577 3 c-4 -3 2
-12 13 -20 11 -8 20 -22 20 -31 -1 -16 -1 -16 -11 1 -5 9 -17 17 -24 17 -8 0
-15 6 -15 13 0 14 9 27 18 27 3 0 2 -3 -1 -7z m-908 -19 c2 -2 -15 -4 -38 -4
-33 0 -41 -3 -39 -16 2 -10 -3 -19 -9 -21 -11 -4 -18 16 -14 40 1 5 -3 6 -8 3
-5 -4 -12 -2 -16 4 -6 9 113 3 124 -6z m1239 -9 c-3 -3 -9 2 -12 12 -6 14 -5
15 5 6 7 -7 10 -15 7 -18z m-567 -8 c-10 -9 -11 -8 -5 6 3 10 9 15 12 12 3 -3
0 -11 -7 -18z m-541 -2 c0 -8 -4 -15 -9 -15 -5 0 -16 -3 -25 -6 -10 -4 -16 -1
-16 9 0 13 13 21 43 26 4 0 7 -6 7 -14z m410 5 c0 -5 -2 -10 -4 -10 -3 0 -8 5
-11 10 -3 6 -1 10 4 10 6 0 11 -4 11 -10z m288 -15 c-3 -3 -9 2 -12 12 -6 14
-5 15 5 6 7 -7 10 -15 7 -18z m-758 6 c0 -8 -71 -22 -79 -15 -6 5 41 23 62 23
9 1 17 -3 17 -8z m810 -4 c0 -7 6 -19 12 -25 17 -17 16 -44 -2 -60 -13 -11
-13 -13 3 -23 26 -16 20 -30 -8 -17 -14 6 -25 19 -25 28 0 9 -6 22 -12 29 -11
11 -10 13 5 8 9 -4 17 -2 17 4 0 6 5 7 10 4 6 -3 10 -2 10 4 0 6 -10 16 -22
22 -14 8 -18 14 -10 17 6 2 10 8 6 13 -3 5 0 9 5 9 6 0 11 -6 11 -13z m470 -6
c1 -13 2 -13 11 2 6 9 14 15 20 12 14 -9 11 -35 -5 -35 -21 0 -16 -41 6 -62
14 -12 15 -17 6 -21 -7 -2 2 -7 20 -11 17 -4 32 -11 33 -14 0 -4 2 -19 4 -34
4 -31 -21 -60 -31 -35 -3 9 -7 23 -8 33 -2 10 -9 20 -16 22 -7 3 -10 0 -6 -7
5 -7 1 -9 -8 -5 -9 3 -16 10 -16 14 0 5 -6 10 -12 13 -7 2 -5 3 5 2 9 -2 17 1
17 6 0 5 -4 9 -10 9 -15 0 -45 34 -46 53 -2 20 12 23 20 5 7 -14 1 14 -9 48
-5 15 -2 21 9 21 9 0 16 -7 16 -16z m-845 -12 c-7 -10 -35 -1 -35 11 0 5 9 6
20 3 11 -3 17 -9 15 -14z m225 0 c0 -5 -4 -9 -8 -9 -5 0 -9 7 -9 15 0 8 4 12
9 9 4 -3 8 -9 8 -15z m273 1 c10 -10 9 -11 -2 -5 -11 6 -13 4 -8 -8 10 -26 -9
-20 -27 8 -16 24 -16 25 4 22 11 -2 26 -9 33 -17z m-2683 -20 c0 -5 -4 -10
-10 -10 -5 0 -10 5 -10 10 0 6 5 10 10 10 6 0 10 -4 10 -10z m2340 -10 c0 -11
-4 -20 -10 -20 -18 0 -10 -18 11 -23 15 -4 19 -2 15 9 -10 26 3 15 19 -16 9
-17 13 -35 10 -40 -3 -6 -2 -10 3 -10 5 0 12 -9 15 -20 7 -28 -9 -25 -18 3 -4
12 -8 25 -9 29 -3 16 -28 33 -49 33 -17 0 -23 7 -25 28 -2 19 1 27 10 25 7 -2
12 3 11 10 -2 6 2 12 7 12 6 0 10 -9 10 -20z m-282 -15 c11 -10 10 -13 -7 -18
-12 -3 -21 -1 -21 4 0 6 -8 6 -19 0 -16 -9 -20 -7 -23 14 -5 22 -3 23 26 18
17 -3 37 -11 44 -18z m127 7 c-3 -3 -11 0 -18 7 -9 10 -8 11 6 5 10 -3 15 -9
12 -12z m679 6 c-6 -10 -4 -10 7 0 18 17 27 15 39 -9 11 -19 9 -20 -32 -17
-45 3 -66 17 -45 30 19 12 39 9 31 -4z m-224 -24 c0 -3 -4 -2 -10 1 -5 3 -10
-1 -10 -9 0 -9 15 -22 33 -29 17 -8 38 -21 45 -30 7 -9 27 -19 43 -22 32 -7
38 -28 14 -51 -17 -17 -21 -39 -5 -29 6 3 10 1 10 -4 0 -6 -6 -11 -14 -11 -8
0 -16 -5 -18 -12 -3 -7 -7 -6 -11 5 -3 9 -2 17 3 17 6 0 10 5 10 11 0 5 -5 7
-10 4 -14 -9 -42 14 -34 27 3 5 18 7 33 3 21 -5 23 -4 14 6 -7 7 -28 13 -48
13 -38 1 -42 5 -23 24 9 9 9 12 0 12 -7 0 -31 12 -54 27 -41 25 -42 26 -20 36
13 6 21 16 18 24 -4 11 -1 11 14 3 11 -6 20 -13 20 -16z m-2670 12 c0 -3 -4
-8 -10 -11 -5 -3 -10 -1 -10 4 0 6 5 11 10 11 6 0 10 -2 10 -4z m2167 -16 c-1
-12 -5 -16 -10 -11 -5 5 -6 14 -3 20 11 16 15 13 13 -9z m818 -10 c3 -6 -1 -7
-9 -4 -18 7 -21 14 -7 14 6 0 13 -4 16 -10z m-100 -25 c14 -13 25 -30 25 -36
0 -7 -7 -4 -15 7 -12 15 -16 16 -23 6 -10 -16 -54 -13 -59 4 -2 6 6 10 18 10
12 -1 24 5 27 13 3 8 0 11 -7 7 -6 -4 -11 -2 -11 3 0 18 20 12 45 -14z m-1659
2 c3 -3 1 -20 -4 -38 -7 -30 -12 -34 -46 -37 -35 -3 -37 -2 -34 25 3 23 -1 28
-19 27 -16 0 -23 5 -23 19 0 18 5 19 61 14 33 -3 63 -7 65 -10z m87 -7 c14 0
17 -8 16 -42 -2 -30 -3 -35 -6 -15 -3 19 -10 27 -24 27 -17 0 -24 -16 -20 -42
0 -5 -3 -8 -9 -8 -5 0 -10 6 -10 14 0 7 -3 28 -7 46 -6 31 -5 33 18 27 13 -4
32 -7 42 -7z m152 0 c3 -5 1 -10 -4 -10 -6 0 -11 5 -11 10 0 6 2 10 4 10 3 0
8 -4 11 -10z m75 -10 c0 -5 -5 -10 -11 -10 -5 0 -7 5 -4 10 3 6 8 10 11 10 2
0 4 -4 4 -10z m788 -38 c2 -7 -3 -12 -12 -12 -9 0 -16 -8 -16 -17 -1 -14 -4
-12 -15 7 -7 14 -10 26 -5 28 5 2 6 11 2 20 -6 16 -4 16 18 1 13 -9 26 -21 28
-27z m157 28 c3 -5 2 -10 -4 -10 -5 0 -13 5 -16 10 -3 6 -2 10 4 10 5 0 13 -4
16 -10z m525 6 c0 -9 -30 -14 -35 -6 -4 6 3 10 14 10 12 0 21 -2 21 -4z m-32
-22 c21 -4 28 -14 9 -14 -23 0 -47 11 -47 22 0 5 6 6 13 1 6 -4 18 -8 25 -9z
m250 -7 c7 3 10 -1 6 -11 -3 -9 -9 -16 -11 -16 -9 0 -32 34 -32 45 0 6 5 3 12
-6 7 -9 18 -14 25 -12z m-2124 -2 c3 -8 1 -15 -4 -15 -6 0 -10 7 -10 15 0 8 2
15 4 15 2 0 6 -7 10 -15z m1554 -19 c2 -15 10 -30 18 -33 8 -3 14 -11 14 -19
0 -8 5 -14 11 -14 8 0 8 -4 -1 -15 -10 -12 -16 -12 -34 -3 -11 7 -24 11 -28
10 -13 -4 -9 36 5 41 10 3 10 9 0 26 -7 11 -13 26 -13 32 0 23 25 1 28 -25z
m707 13 c-6 -9 -1 -11 28 -13 14 -1 27 -16 27 -31 0 -5 -4 -4 -9 3 -6 11 -9 9
-13 -6 -4 -15 0 -22 16 -27 21 -6 21 -6 1 -14 -23 -9 -35 3 -35 35 0 12 -8 28
-17 35 -14 12 -16 12 -11 -2 4 -9 -1 -20 -11 -26 -14 -9 -17 -7 -18 8 -1 11 3
19 8 19 6 0 7 5 4 10 -3 6 1 10 10 10 10 0 13 5 9 12 -4 7 -3 8 5 4 6 -4 9
-12 6 -17z m-308 -11 c-3 -8 -6 -5 -6 6 -1 11 2 17 5 13 3 -3 4 -12 1 -19z
m-1680 -10 c-3 -8 -6 -5 -6 6 -1 11 2 17 5 13 3 -3 4 -12 1 -19z m70 0 c-3 -8
-6 -5 -6 6 -1 11 2 17 5 13 3 -3 4 -12 1 -19z m83 -14 c0 -8 -4 -14 -10 -14
-5 0 -10 9 -10 21 0 11 5 17 10 14 6 -3 10 -13 10 -21z m1747 -4 c-1 -11 -2
-20 -4 -20 -1 0 -7 9 -13 20 -8 16 -8 20 4 20 9 0 14 -8 13 -20z m-1870 -1
c-9 -6 -15 -14 -12 -20 3 -5 -1 -6 -9 -3 -21 8 -20 21 2 27 30 8 37 7 19 -4z
m1453 -4 c0 -8 -2 -15 -4 -15 -2 0 -6 7 -10 15 -3 8 -1 15 4 15 6 0 10 -7 10
-15z m207 0 c0 -8 -4 -15 -8 -15 -11 0 -20 16 -12 24 11 11 20 7 20 -9z m421
-47 c-21 -13 -31 -9 -24 8 5 14 4 15 -8 5 -18 -15 -30 11 -13 28 8 8 17 5 34
-11 17 -16 20 -24 11 -30z m-1963 22 c-3 -5 -10 -10 -16 -10 -5 0 -9 5 -9 10
0 6 7 10 16 10 8 0 12 -4 9 -10z m1654 -24 c-3 -3 -11 5 -18 17 -13 21 -12 21
5 5 10 -10 16 -20 13 -22z m92 17 c10 -11 10 -14 2 -9 -9 5 -13 1 -14 -11 0
-16 -1 -16 -9 2 -17 39 -4 49 21 18z m94 7 c-3 -5 -1 -10 5 -10 6 0 8 -4 5
-10 -4 -6 -13 -5 -25 3 -19 11 -19 12 -2 19 24 9 24 9 17 -2z m-445 -15 c0 -8
-4 -15 -10 -15 -5 0 -7 7 -4 15 4 8 8 15 10 15 2 0 4 -7 4 -15z m180 -1 c0 -2
-7 -4 -15 -4 -8 0 -15 4 -15 10 0 5 7 7 15 4 8 -4 15 -8 15 -10z m210 6 c0 -5
-2 -10 -4 -10 -3 0 -8 5 -11 10 -3 6 -1 10 4 10 6 0 11 -4 11 -10z m-820 -31
c15 -28 5 -23 -15 7 -9 15 -12 23 -6 20 6 -4 16 -16 21 -27z m600 -1 c0 -12
-13 -9 -32 6 -26 19 -22 26 7 13 14 -7 25 -15 25 -19z m-4085 12 c3 -6 -1 -7
-9 -4 -18 7 -21 14 -7 14 6 0 13 -4 16 -10z m1325 -39 c-1 -23 -2 -24 -11 -8
-6 10 -8 21 -5 24 3 4 0 13 -7 22 -11 14 -10 14 6 2 9 -7 17 -25 17 -40z
m2266 28 c8 -14 -10 -11 -32 6 -18 13 -18 14 4 8 12 -3 25 -9 28 -14z m-2539
-11 c-3 -8 -6 -5 -6 6 -1 11 2 17 5 13 3 -3 4 -12 1 -19z m463 -4 c0 -8 -4
-12 -10 -9 -5 3 -10 10 -10 16 0 5 5 9 10 9 6 0 10 -7 10 -16z m2035 6 c3 -6
-1 -7 -9 -4 -18 7 -21 14 -7 14 6 0 13 -4 16 -10z m729 -6 c3 -8 2 -12 -4 -9
-6 3 -10 10 -10 16 0 14 7 11 14 -7z m79 3 c-3 -4 -11 -6 -19 -3 -10 4 -11 0
-4 -19 13 -33 4 -32 -15 3 -9 15 -14 19 -11 10 3 -10 2 -18 -3 -18 -5 0 -11 9
-14 20 -5 18 -1 20 33 18 21 -1 36 -6 33 -11z m-3316 -49 c-3 -7 -5 -2 -5 12
0 14 2 19 5 13 2 -7 2 -19 0 -25z m2768 22 c3 -5 1 -10 -4 -10 -6 0 -11 5 -11
10 0 6 2 10 4 10 3 0 8 -4 11 -10z m-2333 -22 c-7 -7 -12 -8 -12 -2 0 14 12
26 19 19 2 -3 -1 -11 -7 -17z m60 0 c-7 -7 -12 -8 -12 -2 0 14 12 26 19 19 2
-3 -1 -11 -7 -17z m38 12 c0 -5 -4 -10 -10 -10 -5 0 -10 5 -10 10 0 6 5 10 10
10 6 0 10 -4 10 -10z m2077 -22 c-3 -7 -5 -2 -5 12 0 14 2 19 5 13 2 -7 2 -19
0 -25z m-3201 -26 c-4 -3 -11 0 -16 8 -15 24 -11 33 6 15 9 -9 13 -19 10 -23z
m1434 32 c0 -8 -19 -13 -24 -6 -3 5 1 9 9 9 8 0 15 -2 15 -3z m1935 -15 c9 16
28 13 22 -3 -3 -8 -1 -17 6 -20 7 -2 -4 -2 -23 1 -42 7 -55 17 -45 34 6 9 11
8 21 -5 8 -11 14 -13 19 -7z m-3805 -10 c0 -4 -7 -6 -15 -3 -8 4 -15 10 -15
15 0 4 7 6 15 3 8 -4 15 -10 15 -15z m1490 12 c0 -5 -7 -24 -16 -42 -11 -25
-14 -27 -10 -9 3 14 6 33 6 43 0 9 5 17 10 17 6 0 10 -4 10 -9z m414 -18 l18
-22 -30 11 c-22 9 -27 14 -18 24 6 6 11 11 11 10 0 0 9 -11 19 -23z m1683 -28
c-2 -15 0 -25 7 -25 6 0 5 -4 -2 -9 -8 -4 -13 -11 -13 -15 1 -3 1 -16 1 -28 0
-18 -2 -20 -10 -8 -5 9 -5 19 1 26 7 9 5 16 -8 23 -12 7 -14 10 -4 11 10 0 7
6 -7 19 -26 22 -27 30 -5 46 23 17 47 -7 40 -40z m-2380 -22 c-2 -16 -4 -5 -4
22 0 28 2 40 4 28 2 -13 2 -35 0 -50z m2673 52 c0 -16 54 -48 64 -37 4 3 4 -2
0 -11 -4 -13 -10 -15 -17 -8 -6 6 -17 7 -26 2 -10 -6 -20 -4 -26 3 -14 16 -19
66 -6 66 6 0 11 -7 11 -15z m435 5 c3 -5 2 -10 -4 -10 -5 0 -13 5 -16 10 -3 6
-2 10 4 10 5 0 13 -4 16 -10z m145 0 c0 -5 -4 -10 -9 -10 -6 0 -13 5 -16 10
-3 6 1 10 9 10 9 0 16 -4 16 -10z m-4153 -45 c-2 -42 -9 -56 -21 -37 -4 6 15
82 21 82 1 0 1 -20 0 -45z m3733 41 c0 -11 -19 -15 -25 -6 -3 5 1 10 9 10 9 0
16 -2 16 -4z m-3553 -55 c23 -19 23 -20 3 -26 -11 -3 -25 -3 -32 2 -7 4 -21 6
-32 4 -11 -1 -16 2 -12 8 6 9 -3 14 -24 13 -3 0 -11 6 -18 14 -11 12 -9 14 18
9 20 -4 29 -2 25 5 -9 15 42 -6 72 -29z m3959 24 c-3 -8 0 -15 7 -15 8 0 7 -4
-3 -10 -8 -5 -16 -7 -18 -5 -5 5 8 45 15 45 3 0 3 -7 -1 -15z m-2896 -10 c0
-8 -2 -15 -4 -15 -2 0 -6 7 -10 15 -3 8 -1 15 4 15 6 0 10 -7 10 -15z m2481
-2 c13 -16 12 -17 -3 -4 -10 7 -18 15 -18 17 0 8 8 3 21 -13z m910 3 c-2 -12
30 -66 39 -66 14 0 56 -43 52 -54 -2 -5 3 -4 11 2 8 7 17 9 20 5 9 -9 -13 -34
-24 -27 -5 3 -9 0 -9 -5 0 -6 4 -11 10 -11 5 0 7 -7 4 -15 -9 -22 -24 -18 -24
5 0 18 -6 22 -26 19 -12 -1 -23 25 -13 32 15 9 -22 46 -55 54 -26 5 -28 4 -17
-9 8 -9 9 -16 3 -16 -15 0 -20 22 -12 45 7 18 8 19 15 3 12 -29 20 -21 19 18
-1 19 0 33 3 31 2 -3 4 -8 4 -11z m-4681 -34 c0 -14 -2 -14 -9 -3 -5 8 -16 11
-25 8 -8 -3 -18 -2 -21 3 -5 9 34 19 48 12 4 -2 7 -11 7 -20z m-110 -13 c0
-15 -4 -19 -16 -15 -9 3 -24 6 -35 6 -10 0 -19 7 -19 15 0 10 11 15 35 15 29
0 35 -4 35 -21z m1625 7 c18 -13 18 -14 -8 -9 -15 3 -30 9 -33 14 -8 14 20 10
41 -5z m-1225 -17 c0 -15 -21 -53 -34 -61 -6 -4 -18 -7 -26 -7 -10 0 -8 3 5 9
17 7 17 9 3 9 -19 1 -26 31 -7 31 6 0 9 7 5 15 -4 11 2 15 24 15 17 0 30 -5
30 -11z m3941 -5 c23 -10 26 -13 9 -9 -14 4 -31 7 -37 7 -7 1 -13 5 -13 10 0
11 2 10 41 -8z m329 -5 c0 -14 -17 -10 -23 5 -4 10 -1 13 9 9 7 -3 14 -9 14
-14z m-4365 1 c-3 -5 -1 -10 5 -10 6 0 8 -4 5 -10 -4 -6 -11 -5 -19 3 -10 9
-11 14 -2 19 15 10 18 10 11 -2z m958 -33 c4 3 7 1 7 -5 0 -7 -3 -12 -8 -12
-14 0 -52 31 -52 42 0 6 10 2 23 -10 13 -12 27 -19 30 -15z m376 -53 c-5 -24
-6 -51 -3 -59 4 -9 1 -15 -7 -15 -30 0 -40 17 -37 61 2 34 0 44 -12 44 -10 0
-17 -13 -20 -39 -6 -45 -30 -62 -30 -22 0 14 4 26 8 26 5 0 7 13 4 28 -4 32
10 48 48 54 40 6 59 -25 49 -78z m2075 60 c4 -10 1 -14 -6 -12 -15 5 -23 28
-10 28 5 0 13 -7 16 -16z m749 9 c-7 -2 -19 -2 -25 0 -7 3 -2 5 12 5 14 0 19
-2 13 -5z m-3733 -22 c0 -6 -9 -9 -19 -8 -11 0 -17 5 -15 9 7 11 34 10 34 -1z
m2574 -6 c-4 -8 -11 -15 -16 -15 -6 0 -5 6 2 15 7 8 14 15 16 15 2 0 1 -7 -2
-15z m-2054 -16 c0 -5 3 -8 8 -6 4 3 7 -8 7 -24 0 -16 -3 -29 -7 -29 -5 0 -8
5 -8 11 0 5 -5 7 -11 3 -8 -5 -8 -1 0 13 7 14 7 23 -1 31 -9 9 -9 12 0 12 7 0
12 -5 12 -11z m574 -4 c-4 -8 -11 -12 -16 -9 -6 4 -5 10 3 15 19 12 19 11 13
-6z m71 -3 c-3 -3 -11 0 -18 7 -9 10 -8 11 6 5 10 -3 15 -9 12 -12z m-678 -7
c0 -8 -4 -12 -8 -9 -4 2 -10 -2 -12 -8 -4 -8 -6 -7 -6 4 -1 9 5 19 12 21 6 3
12 6 13 6 0 1 1 -6 1 -14z m733 -19 c0 -6 -4 -5 -9 3 -5 7 -14 11 -20 7 -7 -5
-9 -1 -5 9 5 12 9 13 20 4 8 -6 14 -17 14 -23z m197 12 c6 -13 14 -33 16 -45
4 -19 1 -23 -16 -22 -12 0 -16 3 -9 6 10 4 10 8 0 21 -13 15 -19 62 -8 62 4 0
12 -10 17 -22z m1122 -9 c-13 -25 -15 -24 -15 5 0 15 5 22 13 19 9 -4 10 -10
2 -24z m-2586 -7 c-18 -5 -27 3 -18 17 4 7 10 7 20 -2 11 -10 11 -13 -2 -15z
m1180 13 c-3 -9 -8 -14 -10 -11 -3 3 -2 9 2 15 9 16 15 13 8 -4z m3130 -16
c31 -17 57 -34 57 -39 0 -18 -23 -22 -32 -6 -5 9 -16 16 -23 16 -8 0 -15 4
-15 10 0 11 -59 44 -66 37 -3 -2 2 -10 11 -17 8 -7 15 -20 15 -29 0 -14 2 -14
10 -1 7 10 10 11 10 2 0 -7 -7 -15 -16 -19 -29 -11 -48 31 -35 75 3 9 35 -2
84 -29z m-4525 14 c-10 -2 -26 -2 -35 0 -10 3 -2 5 17 5 19 0 27 -2 18 -5z
m1219 -19 c-3 -3 -12 -4 -19 -1 -8 3 -5 6 6 6 11 1 17 -2 13 -5z m508 -54 c0
-36 -10 -65 -13 -37 -1 6 -4 31 -6 55 -4 33 -3 40 7 31 6 -6 12 -29 12 -49z
m1915 44 c0 -8 -4 -12 -10 -9 -5 3 -10 1 -10 -4 0 -6 -7 -11 -17 -11 -13 0
-11 4 7 20 28 24 30 24 30 4z m26 -32 c-20 -20 -22 -1 -4 31 11 20 12 21 16 3
2 -10 -3 -26 -12 -34z m107 34 c15 -4 25 -11 22 -16 -3 -6 3 -10 14 -10 12 0
21 -5 21 -11 0 -5 5 -7 10 -4 6 3 15 3 22 -1 8 -5 6 -10 -7 -14 -19 -7 -27 -3
-65 32 -12 11 -20 13 -23 5 -2 -7 -13 -2 -28 12 -13 12 -17 20 -9 17 8 -2 28
-7 43 -10z m963 -11 c-2 -17 -7 -18 -31 -9 -8 3 -12 11 -9 16 4 6 10 5 15 -3
7 -11 9 -10 9 4 0 10 4 16 9 13 5 -4 8 -13 7 -21z m-2921 -5 c15 -17 16 -20 3
-20 -9 0 -18 9 -21 20 -3 11 -4 20 -3 20 2 0 11 -9 21 -20z m1082 4 c-3 -3
-12 -4 -19 -1 -8 3 -5 6 6 6 11 1 17 -2 13 -5z m-1247 -29 c7 -9 8 -15 2 -15
-5 0 -12 7 -16 15 -3 8 -4 15 -2 15 2 0 9 -7 16 -15z m2067 -1 c-3 -3 -12 -4
-19 -1 -8 3 -5 6 6 6 11 1 17 -2 13 -5z m-3827 -16 c0 -4 -4 -8 -9 -8 -6 0
-12 4 -15 8 -3 5 1 9 9 9 8 0 15 -4 15 -9z m1323 5 c-7 -2 -19 -2 -25 0 -7 3
-2 5 12 5 14 0 19 -2 13 -5z m2417 -14 c0 -5 -8 -9 -17 -8 -11 0 -13 3 -5 6 6
2 9 10 6 15 -4 7 -2 8 4 4 7 -4 12 -11 12 -17z m-3401 -24 c112 -14 208 -25
213 -25 4 0 8 -4 8 -8 0 -5 -80 2 -177 15 -98 13 -205 26 -238 29 -33 3 -67
10 -75 15 -10 6 -1 7 25 4 22 -3 132 -16 244 -30z m515 14 c16 -14 2 -19 -36
-13 -25 5 -35 11 -31 20 5 14 49 10 67 -7z m366 1 c11 18 46 23 47 7 1 -7 5
-32 9 -57 4 -25 8 -53 8 -62 0 -9 4 -15 7 -12 4 2 11 0 14 -6 4 -6 1 -9 -6 -8
-6 2 -14 -3 -16 -9 -3 -7 1 -13 7 -13 10 0 9 -4 0 -15 -7 -9 -15 -49 -18 -89
-4 -72 -4 -73 19 -72 16 1 26 -5 29 -19 3 -11 12 -21 20 -21 8 -1 21 -2 28 -3
16 -1 16 -21 -1 -21 -19 0 -17 -30 2 -31 9 0 4 -5 -11 -11 -16 -5 -28 -14 -28
-19 0 -4 -7 -6 -16 -2 -15 6 -15 7 1 20 24 17 16 23 -34 28 -52 5 -81 14 -81
26 0 5 -6 9 -13 9 -7 0 -22 7 -33 16 -10 8 -14 13 -7 10 6 -4 15 -1 19 5 4 7
3 9 -4 5 -6 -3 -18 1 -26 10 -15 14 -17 14 -22 0 -10 -27 -21 -18 -20 18 1 19
4 32 8 30 4 -2 9 15 13 38 18 127 24 157 35 183 5 11 10 31 12 45 2 17 9 25
21 24 9 -1 18 3 18 10 1 6 4 2 6 -8 4 -14 7 -16 13 -6z m1854 -11 c11 -13 14
-24 8 -28 -5 -3 -11 -15 -13 -26 -4 -16 -7 -14 -21 15 -16 33 -16 35 0 39 15
3 14 5 -3 12 -14 5 -15 8 -5 8 9 1 24 -9 34 -20z m765 12 c9 -6 2 -10 -23 -13
-36 -4 -52 2 -39 16 9 9 46 7 62 -3z m-3829 -26 c0 -23 24 -32 100 -39 51 -4
68 -3 53 4 -32 13 -28 25 8 26 20 1 26 -2 17 -7 -10 -7 -10 -9 0 -9 6 0 12 -9
12 -21 0 -11 4 -17 10 -14 6 4 8 15 5 24 -4 15 1 18 32 19 28 1 34 -1 23 -8
-8 -5 -10 -10 -5 -10 6 0 5 -4 -1 -8 -9 -5 -8 -10 1 -19 10 -10 14 -7 19 12 5
21 11 24 39 21 17 -3 46 -5 62 -6 l30 -1 -25 -10 c-14 -5 -31 -17 -37 -26 -7
-9 -16 -13 -20 -9 -4 4 -1 11 6 15 9 6 10 11 2 15 -6 4 -15 -4 -21 -19 -14
-36 -13 -45 5 -45 8 0 15 5 15 11 0 5 4 8 9 5 5 -4 12 0 15 6 3 7 5 -1 3 -19
-2 -18 0 -30 5 -27 5 3 22 3 38 -1 35 -8 30 -27 -5 -21 -17 3 -22 1 -18 -10 3
-9 -1 -14 -13 -14 -28 0 -48 16 -39 30 6 9 4 11 -6 4 -31 -19 -126 -14 -114 7
4 5 -9 9 -27 10 -87 2 -107 13 -89 48 7 12 8 21 2 21 -5 0 -12 -11 -15 -25 -4
-14 -13 -25 -20 -25 -8 0 -17 -8 -19 -17 -4 -14 -5 -12 -6 5 -1 16 -12 26 -41
38 -36 14 -39 18 -28 37 8 15 8 22 0 25 -8 2 -8 10 0 27 11 24 38 24 38 0z
m990 10 c7 -9 -3 -12 -38 -12 -39 -1 -43 0 -22 8 22 7 20 8 -12 6 -21 -2 -38
1 -38 6 0 12 99 5 110 -8z m2975 5 c4 -6 11 -8 16 -5 5 4 9 1 9 -4 0 -6 9 -11
19 -11 11 0 23 -4 26 -10 10 -16 -55 -4 -68 13 -7 8 -21 17 -32 20 -18 4 -18
5 2 6 12 0 25 -4 28 -9z m-4211 -16 c19 -7 22 -44 4 -45 -7 -1 -2 -5 12 -9 24
-8 24 -8 2 -9 -13 -1 -25 6 -29 17 -4 9 -11 20 -16 23 -5 4 -6 12 -3 18 8 13
9 13 30 5z m2066 -39 c0 -5 -5 -3 -10 5 -5 8 -10 20 -10 25 0 6 5 3 10 -5 5
-8 10 -19 10 -25z m-1940 15 c0 -5 -4 -10 -10 -10 -5 0 -10 5 -10 10 0 6 5 10
10 10 6 0 10 -4 10 -10z m3830 0 c0 -5 -4 -10 -10 -10 -5 0 -10 5 -10 10 0 6
5 10 10 10 6 0 10 -4 10 -10z m-580 -10 c0 -5 -7 -10 -16 -10 -8 0 -12 5 -9
10 3 6 10 10 16 10 5 0 9 -4 9 -10z m-3326 -74 c-16 -21 -16 -21 -8 4 6 22 5
23 -10 11 -14 -12 -16 -11 -16 3 0 9 7 16 15 16 9 0 15 10 16 23 1 19 2 18 9
-7 7 -21 5 -35 -6 -50z m2515 34 c31 -27 38 -37 23 -33 -12 3 -22 9 -22 14 0
5 -5 9 -12 9 -14 0 -48 30 -48 42 0 15 15 7 59 -32z m1101 36 c0 -2 -7 -7 -16
-10 -8 -3 -12 -2 -9 4 6 10 25 14 25 6z m-2939 -59 c-9 -9 -11 -8 -6 6 4 10 2
17 -4 17 -6 0 -11 8 -11 17 0 14 3 13 16 -6 13 -17 14 -25 5 -34z m469 49 c0
-3 -4 -8 -10 -11 -5 -3 -10 -1 -10 4 0 6 5 11 10 11 6 0 10 -2 10 -4z m1528
-7 c-3 -12 50 -32 63 -24 6 4 20 -17 23 -35 1 -3 5 -10 9 -17 4 -6 3 -14 -2
-17 -15 -9 -38 4 -56 30 -8 13 -22 24 -29 24 -16 0 -29 27 -20 41 7 13 14 11
12 -2z m-2611 -21 c-3 -8 -6 -5 -6 6 -1 11 2 17 5 13 3 -3 4 -12 1 -19z m783
-11 c0 -5 -23 -6 -57 -2 -68 8 -89 15 -74 24 15 9 131 -10 131 -22z m2776 13
c0 -11 -4 -20 -8 -20 -4 0 -8 9 -8 20 0 11 4 20 8 20 4 0 8 -9 8 -20z m-2311
0 c8 -13 -5 -13 -25 0 -13 8 -13 10 2 10 9 0 20 -4 23 -10z m1161 -40 c16 -48
35 -58 132 -65 48 -4 101 -11 117 -16 32 -10 208 -12 285 -4 l45 5 -30 -25
c-16 -14 -39 -34 -50 -45 -19 -18 -27 -19 -109 -10 -49 6 -93 13 -97 16 -8 5
-157 29 -249 40 -25 3 -47 7 -49 10 -4 4 51 8 81 5 9 -1 20 3 24 10 5 9 -5 11
-39 7 -26 -3 -44 -2 -41 3 3 5 1 9 -5 9 -5 0 -13 -4 -16 -10 -3 -5 -11 -10
-16 -10 -6 0 -3 7 6 16 13 13 14 19 4 25 -7 4 -17 5 -21 3 -9 -6 -4 39 6 55 4
5 1 12 -4 14 -6 3 -5 4 2 3 7 -1 18 -17 24 -36z m-733 14 c26 -3 47 -9 47 -13
0 -7 -112 4 -190 19 -38 7 -34 8 25 4 39 -3 91 -7 118 -10z m1947 12 c0 -2 -7
-7 -16 -10 -8 -3 -12 -2 -9 4 6 10 25 14 25 6z m-1630 -28 c0 -27 -16 -30
-101 -23 -64 6 -79 10 -79 24 0 14 13 16 90 16 78 0 90 -2 90 -17z m584 -3 c9
-14 12 -25 6 -25 -5 0 -10 4 -10 9 0 5 -7 17 -16 25 -8 9 -11 16 -6 16 5 0 17
-11 26 -25z m-1025 -1 c2 -2 -7 -4 -22 -4 -14 0 -29 5 -32 10 -6 10 42 4 54
-6z m-319 -7 c0 -16 -30 -18 -45 -3 -14 14 -13 15 15 13 16 -1 30 -6 30 -10z
m860 -3 c0 -2 -7 -4 -15 -4 -8 0 -15 4 -15 10 0 5 7 7 15 4 8 -4 15 -8 15 -10z
m-407 0 c20 -4 37 -10 37 -14 0 -8 -89 6 -98 15 -7 7 15 6 61 -1z m-1076 -24
c-3 -11 -1 -18 4 -15 5 4 25 1 46 -4 25 -7 41 -7 49 0 9 7 15 5 23 -9 7 -13
26 -22 56 -26 25 -4 45 -13 46 -19 0 -7 4 -2 9 11 11 27 26 29 33 3 5 -19 65
-35 80 -21 13 12 56 -1 59 -18 2 -11 22 -20 62 -28 51 -10 62 -10 75 3 13 14
17 13 32 -5 9 -12 20 -18 23 -14 4 3 4 -1 1 -11 -9 -21 -61 -32 -143 -31 -52
1 -62 -2 -60 -15 4 -25 21 -31 35 -13 7 10 12 12 13 5 0 -7 11 -23 23 -35 25
-25 76 -32 89 -13 12 16 9 -44 -3 -67 -9 -18 -8 -24 7 -35 9 -7 14 -16 10 -20
-4 -5 -13 0 -20 10 -15 20 -32 22 -40 5 -3 -7 -3 -1 0 15 5 23 3 27 -15 27
-12 0 -21 4 -21 8 0 4 -8 8 -17 9 -10 1 -31 5 -47 9 -26 6 -28 5 -24 -13 4
-16 1 -19 -19 -15 -18 3 -23 10 -21 30 2 18 -2 27 -12 28 -8 0 -23 2 -33 2
-10 1 -16 6 -13 10 3 5 -5 8 -17 7 -23 -2 -38 -35 -15 -35 7 -1 27 -7 43 -15
27 -13 27 -14 4 -9 -33 7 -62 12 -70 13 -8 1 -23 52 -20 69 1 6 -5 12 -13 12
-9 0 -20 9 -26 20 -11 20 -5 25 28 21 8 -1 12 5 10 14 -2 10 -29 25 -71 39
-58 19 -71 21 -92 10 -22 -12 -25 -11 -25 7 0 10 -6 19 -13 19 -8 0 -22 10
-33 22 -10 12 -13 18 -6 14 18 -11 14 5 -5 20 -11 8 -13 13 -5 14 6 0 12 7 12
15 0 8 7 15 16 15 11 0 15 -6 11 -20z m3083 5 c-7 -9 -15 -13 -19 -10 -3 3 1
10 9 15 21 14 24 12 10 -5z m80 -15 c0 -3 -5 -12 -10 -20 -8 -12 -10 -11 -10
6 0 11 -6 26 -12 33 -10 11 -8 10 10 0 12 -8 22 -16 22 -19z m-2180 -2 c11 -7
8 -8 -12 -5 -16 2 -28 1 -28 -3 0 -11 -52 1 -75 17 -18 13 -14 14 40 7 33 -3
67 -11 75 -16z m890 6 c0 -2 -7 -4 -15 -4 -8 0 -15 4 -15 10 0 5 7 7 15 4 8
-4 15 -8 15 -10z m-597 -1 c-13 -2 -33 -2 -45 0 -13 2 -3 4 22 4 25 0 35 -2
23 -4z m-1710 -10 c5 -10 -6 -44 -15 -46 -4 -1 -14 7 -22 18 -11 15 -11 22 -3
27 15 10 35 10 40 1z m1517 -3 c13 -9 13 -10 0 -10 -13 0 -13 -1 0 -10 13 -8
13 -10 -1 -10 -25 0 -79 21 -79 31 0 12 61 11 80 -1z m203 -37 c5 -7 12 -11
17 -8 5 3 19 1 30 -5 25 -13 27 -35 3 -25 -10 4 -40 12 -68 17 -45 9 -64 21
-65 40 0 12 75 -5 83 -19z m2467 -23 c0 -5 -4 -10 -10 -10 -5 0 -10 5 -10 10
0 6 5 10 10 10 6 0 10 -4 10 -10z m-1962 -51 c-2 11 9 14 52 12 30 -2 58 -5
61 -7 4 -2 45 -6 90 -9 121 -7 269 -26 269 -35 0 -3 -11 -12 -24 -20 -19 -10
-34 -10 -70 -1 -74 18 -95 15 -102 -16 -4 -16 -14 -38 -22 -51 l-14 -22 -24
26 -24 25 22 19 c18 14 20 21 11 31 -9 9 -21 7 -52 -10 -41 -21 -41 -21 -61
-1 -24 24 -34 25 -50 5 -17 -20 -40 -19 -41 3 0 13 -2 12 -9 -5 -5 -13 -14
-23 -20 -23 -5 0 -10 -9 -10 -19 0 -26 -16 -35 -24 -15 -11 30 -6 64 9 64 13
0 15 8 9 38 -6 35 -5 36 10 17 10 -12 15 -14 14 -6z m-483 -37 c-5 -4 -11 -18
-11 -32 -3 -47 -4 -51 -14 -45 -5 3 -7 0 -4 -9 10 -27 -7 -40 -20 -14 -14 27
-9 71 7 61 6 -4 8 0 4 9 -6 18 10 38 33 38 9 0 11 -3 5 -8z m-325 -66 c0 -8
-4 -18 -10 -21 -5 -3 -10 3 -10 14 0 12 5 21 10 21 6 0 10 -6 10 -14z m-947
-37 c-9 -9 -12 -7 -10 9 1 14 5 18 11 12 7 -7 6 -14 -1 -21z m147 5 l25 -13
-27 2 c-16 1 -28 5 -28 9 0 4 -8 8 -17 8 -10 0 -25 5 -33 10 -22 15 49 0 80
-16z m1150 -14 c0 -44 -15 -121 -24 -123 -13 -3 -26 52 -21 85 3 15 10 39 15
54 12 31 30 22 30 -16z m-615 9 c-4 -5 3 -9 13 -9 31 0 43 -45 27 -97 -4 -13
-11 -20 -16 -17 -5 3 -22 8 -37 10 -26 5 -26 5 -7 -10 19 -15 19 -15 -7 -16
-33 0 -42 13 -40 58 2 52 11 70 35 74 12 2 21 9 19 16 -1 8 2 11 8 7 6 -3 8
-11 5 -16z m35 17 c0 -3 -4 -8 -10 -11 -5 -3 -10 -1 -10 4 0 6 5 11 10 11 6 0
10 -2 10 -4z m-653 -48 c-3 -7 -5 -2 -5 12 0 14 2 19 5 13 2 -7 2 -19 0 -25z
m543 -18 c0 -21 -5 -30 -16 -30 -11 0 -14 5 -10 16 3 9 6 22 6 30 0 8 5 14 10
14 6 0 10 -13 10 -30z m194 -25 c8 -8 23 -11 36 -8 20 5 22 3 18 -15 -3 -12
-1 -23 4 -24 6 -2 9 -11 7 -21 -4 -15 -7 -16 -33 -2 -23 12 -32 13 -44 3 -13
-11 -15 -10 -10 10 8 30 2 28 -16 -5 -14 -27 -14 -27 -17 25 -2 29 -1 52 3 52
4 0 10 10 14 22 l7 23 8 -23 c5 -13 15 -29 23 -37z m-361 8 c-7 -2 -19 -2 -25
0 -7 3 -2 5 12 5 14 0 19 -2 13 -5z m133 -52 c-12 -19 -24 -12 -19 10 4 13 9
17 15 11 6 -6 7 -15 4 -21z m404 8 c0 -5 5 -7 11 -3 7 4 10 -1 7 -12 -2 -13
-13 -20 -33 -22 -17 -2 -36 -9 -44 -15 -12 -10 -13 -8 -8 13 4 14 7 28 7 32 0
6 11 9 53 17 4 0 7 -4 7 -10z m180 -19 c0 -5 -2 -10 -4 -10 -3 0 -8 5 -11 10
-3 6 -1 10 4 10 6 0 11 -4 11 -10z m119 -39 c11 -11 17 -21 15 -24 -8 -8 -54
5 -48 14 3 5 -4 9 -15 9 -15 0 -19 -4 -14 -17 6 -16 5 -16 -10 -4 -9 7 -17 20
-17 27 0 22 66 18 89 -5z m-89 -37 c0 -2 -7 -4 -15 -4 -8 0 -15 4 -15 10 0 5
7 7 15 4 8 -4 15 -8 15 -10z m370 -41 c0 -3 -6 -3 -14 0 -8 3 -16 -2 -19 -14
-7 -28 -27 -23 -25 6 1 14 6 25 11 25 5 0 5 10 1 23 -6 20 -4 20 20 -6 14 -15
26 -31 26 -34z m-210 37 c0 -5 -5 -10 -11 -10 -5 0 -7 5 -4 10 3 6 8 10 11 10
2 0 4 -4 4 -10z m1970 -30 c6 -11 7 -20 2 -20 -6 0 -12 9 -15 20 -3 11 -3 20
-1 20 2 0 8 -9 14 -20z m40 0 c0 -5 -2 -10 -4 -10 -3 0 -8 5 -11 10 -3 6 -1
10 4 10 6 0 11 -4 11 -10z m19 -136 c14 -12 -19 -1 -35 12 -18 14 -18 14 6 3
14 -6 27 -13 29 -15z m178 -340 c-3 -3 -12 -4 -19 -1 -8 3 -5 6 6 6 11 1 17
-2 13 -5z m-197 -368 c0 -3 -4 -8 -10 -11 -5 -3 -10 -1 -10 4 0 6 5 11 10 11
6 0 10 -2 10 -4z m-268 -89 c10 -12 15 -31 12 -43 -4 -16 3 -28 30 -49 41 -31
46 -62 16 -88 -11 -9 -20 -13 -20 -7 0 5 -21 7 -47 6 -45 -3 -51 -1 -86 37
-31 32 -38 47 -35 69 3 16 1 31 -4 34 -4 3 -8 12 -8 20 0 9 5 12 12 8 7 -5 8
-3 3 6 -5 8 -1 18 11 27 27 20 94 9 116 -20z m543 -587 c3 -5 -1 -10 -10 -10
-9 0 -13 5 -10 10 3 6 8 10 10 10 2 0 7 -4 10 -10z m12 -42 c-3 -8 -6 -5 -6 6
-1 11 2 17 5 13 3 -3 4 -12 1 -19z m-37 -42 c0 -3 -4 -8 -10 -11 -5 -3 -10 -1
-10 4 0 6 5 11 10 11 6 0 10 -2 10 -4z m-217 -554 c-3 -12 -9 -22 -15 -22 -5
0 -4 8 2 19 7 14 7 22 0 26 -6 4 -7 11 -4 17 10 17 24 -15 17 -40z m-113 14
c0 -2 -7 -9 -15 -16 -13 -11 -14 -10 -9 4 5 14 24 23 24 12z m190 -196 c-6
-11 -15 -20 -20 -20 -6 0 -2 9 7 20 10 11 19 20 21 20 1 0 -2 -9 -8 -20z
m-3913 -22 c-3 -8 -6 -5 -6 6 -1 11 2 17 5 13 3 -3 4 -12 1 -19z m3898 -28
c13 0 14 -4 4 -21 -9 -17 -8 -23 2 -30 8 -5 10 -9 4 -9 -20 0 -32 15 -30 38 1
13 -4 26 -11 29 -7 2 -10 12 -7 20 5 13 8 12 14 -5 5 -12 15 -22 24 -22z
m-3915 -10 c0 -5 -4 -10 -10 -10 -5 0 -10 5 -10 10 0 6 5 10 10 10 6 0 10 -4
10 -10z m520 -15 c0 -8 -7 -15 -15 -15 -9 0 -12 6 -9 15 4 8 10 15 15 15 5 0
9 -7 9 -15z m590 -10 c-7 -8 -17 -15 -22 -15 -6 0 -5 7 2 15 7 8 17 15 22 15
6 0 5 -7 -2 -15z m-590 -39 c0 -18 -8 -27 -30 -34 -21 -8 -32 -8 -36 0 -4 6
-3 8 2 5 6 -3 19 8 29 24 24 35 35 37 35 5z m720 -12 c0 -9 -5 -12 -12 -8 -7
4 -5 -2 5 -13 9 -11 17 -30 17 -44 0 -25 -44 -88 -54 -79 -3 3 6 18 19 32 20
22 22 28 10 38 -21 18 -27 44 -15 74 10 28 30 27 30 0z m-1290 1 c-14 -17 -30
-20 -30 -6 0 5 8 12 18 14 9 3 19 5 21 6 2 0 -2 -6 -9 -14z m224 -22 c3 -7 1
-13 -4 -13 -6 0 -10 5 -10 10 0 6 -6 10 -13 10 -8 0 -14 6 -14 14 0 11 4 12
18 3 10 -6 21 -17 23 -24z m556 -3 c0 -5 -5 -10 -11 -10 -5 0 -7 5 -4 10 3 6
8 10 11 10 2 0 4 -4 4 -10z m-65 -18 c-3 -3 -11 0 -18 7 -9 10 -8 11 6 5 10
-3 15 -9 12 -12z m-990 -2 c-3 -5 -2 -10 3 -10 5 0 8 -12 7 -27 -1 -16 -3 -45
-3 -66 -3 -54 -25 -43 -35 18 -6 36 -5 50 5 56 7 5 14 13 14 19 2 17 4 20 10
20 3 0 2 -4 -1 -10z m1080 -10 c3 -5 1 -10 -4 -10 -6 0 -11 5 -11 10 0 6 2 10
4 10 3 0 8 -4 11 -10z m-120 -10 c-3 -5 -10 -10 -16 -10 -5 0 -9 5 -9 10 0 6
7 10 16 10 8 0 12 -4 9 -10z m-1078 -22 c-3 -8 -6 -5 -6 6 -1 11 2 17 5 13 3
-3 4 -12 1 -19z m1203 2 c17 -10 14 -15 -17 -24 -25 -8 -26 -6 -17 18 7 18 13
19 34 6z m-794 -21 c16 -17 16 -22 4 -29 -19 -12 -21 -12 -44 5 -15 12 -16 16
-5 29 18 20 23 20 45 -5z m634 6 c10 -12 10 -15 -4 -15 -9 0 -16 7 -16 15 0 8
2 15 4 15 2 0 9 -7 16 -15z m95 5 c3 -5 1 -10 -4 -10 -6 0 -11 5 -11 10 0 6 2
10 4 10 3 0 8 -4 11 -10z m679 -5 c-4 -8 -8 -15 -10 -15 -2 0 -4 7 -4 15 0 8
4 15 10 15 5 0 7 -7 4 -15z m-30 -10 c-4 -8 -8 -15 -10 -15 -2 0 -4 7 -4 15 0
8 4 15 10 15 5 0 7 -7 4 -15z m-64 -3 c0 -9 -40 -45 -45 -40 -1 2 1 13 6 26 8
20 39 32 39 14z m33 -12 c3 -11 3 -20 1 -20 -2 0 -8 9 -14 20 -6 11 -7 20 -2
20 6 0 12 -9 15 -20z m-715 -22 c-5 -13 -48 -22 -48 -9 0 10 17 19 38 20 8 1
12 -4 10 -11z m-1023 -8 c3 -5 -1 -10 -9 -10 -8 0 -18 5 -21 10 -3 6 1 10 9
10 8 0 18 -4 21 -10z m364 -6 c2 -2 -3 -10 -12 -18 -13 -13 -16 -13 -31 3 -9
10 -13 21 -9 24 6 6 42 0 52 -9z m1077 -19 c-3 -8 -11 -15 -18 -14 -10 0 -10
2 0 6 6 2 12 14 13 26 0 12 3 16 6 9 3 -7 2 -19 -1 -27z m280 7 c-4 -3 -14 2
-24 12 -16 18 -16 18 6 6 13 -6 21 -14 18 -18z m-1842 3 c3 -9 -3 -19 -15 -26
-25 -13 -30 -9 -22 19 6 25 28 29 37 7z m713 -17 c-3 -8 -6 -5 -6 6 -1 11 2
17 5 13 3 -3 4 -12 1 -19z m42 -38 c0 -8 -6 -2 -14 14 -8 15 -12 33 -8 39 7
11 20 -20 22 -53z m41 45 c0 -8 -7 -15 -16 -15 -14 0 -14 3 -4 15 7 8 14 15
16 15 2 0 4 -7 4 -15z m-705 -5 c-3 -5 -11 -10 -16 -10 -6 0 -7 5 -4 10 3 6
11 10 16 10 6 0 7 -4 4 -10z m1308 -47 c-3 -7 -13 -13 -23 -13 -11 0 -22 -4
-25 -10 -3 -5 -11 -10 -17 -10 -6 0 -5 7 4 18 8 9 18 30 22 45 l7 28 18 -23
c10 -12 16 -28 14 -35z m-573 39 c0 -4 -9 -13 -20 -20 -22 -13 -27 -3 -8 16
14 14 28 16 28 4z m770 -2 c0 -5 -4 -10 -10 -10 -5 0 -10 5 -10 10 0 6 5 10
10 10 6 0 10 -4 10 -10z m-85 -32 c-4 -9 -18 -19 -32 -23 -18 -4 -23 -10 -18
-22 5 -14 3 -14 -15 2 -21 19 -27 45 -10 45 6 0 10 -7 10 -17 0 -15 1 -15 18
0 10 10 22 14 25 10 4 -3 7 4 7 17 0 17 3 21 10 14 6 -6 8 -18 5 -26z m-835
-18 c0 -5 -5 -10 -11 -10 -6 0 -9 -6 -6 -12 2 -7 -3 -18 -11 -24 -13 -9 -9
-12 21 -18 35 -6 36 -8 42 -61 9 -69 0 -84 -32 -53 -19 17 -24 31 -21 60 1 21
-1 38 -5 38 -40 1 -47 -1 -41 -11 3 -6 -8 -25 -25 -43 -31 -32 -31 -33 -22
-98 5 -36 14 -74 19 -84 6 -11 9 -35 8 -54 -1 -27 -6 -35 -21 -35 -14 0 -19
-6 -17 -20 2 -19 2 -19 -16 2 -11 12 -35 25 -55 28 -26 5 -37 13 -40 29 -3 19
-4 19 -15 -6 -15 -35 -26 -36 -18 -2 6 22 4 25 -10 20 -13 -5 -14 -4 -6 7 7 8
24 12 39 10 23 -4 31 1 46 25 9 17 17 37 17 46 0 9 5 16 10 16 6 0 16 11 22
25 9 20 9 28 -1 38 -9 9 -16 7 -32 -13 -11 -14 -27 -39 -34 -57 -8 -17 -20
-35 -26 -38 -17 -11 -32 11 -24 35 6 18 9 20 16 9 9 -15 23 -1 50 48 16 29 8
37 -30 28 -25 -5 -31 -12 -32 -33 0 -24 -1 -25 -9 -7 -8 20 -8 20 -16 0 -4
-11 -8 -35 -8 -52 0 -42 -31 -47 -33 -5 -2 22 -5 45 -12 82 -1 3 -5 1 -9 -5
-10 -14 -49 -35 -64 -35 -7 0 -5 5 6 11 13 8 15 13 6 19 -9 6 -8 13 4 32 9 14
13 28 9 31 -3 4 1 7 9 7 9 0 19 7 22 16 3 8 10 13 14 10 5 -3 22 13 38 34 28
38 44 49 44 32 0 -5 -13 -21 -30 -37 -16 -16 -27 -31 -25 -34 3 -3 29 -6 58
-7 28 -1 65 -4 82 -6 23 -2 30 1 33 17 7 33 24 47 54 43 15 -3 28 -2 28 1 0 3
9 21 20 39 19 31 40 43 40 22z m-585 -10 c-3 -5 -14 -10 -23 -10 -15 0 -15 2
-2 10 20 13 33 13 25 0z m1430 -30 c-5 -8 -11 -8 -17 -2 -6 6 -7 16 -3 22 5 8
11 8 17 2 6 -6 7 -16 3 -22z m-1522 -8 c27 2 33 -1 35 -19 2 -13 -1 -23 -7
-23 -6 0 -11 7 -11 16 0 12 -6 15 -22 11 -21 -6 -47 15 -47 38 0 6 4 2 10 -8
8 -13 20 -17 42 -15z m1557 14 c0 -3 -4 -8 -10 -11 -5 -3 -10 -1 -10 4 0 6 5
11 10 11 6 0 10 -2 10 -4z m-291 -25 c9 -6 14 -24 13 -45 -1 -20 3 -36 8 -36
11 0 13 -33 3 -68 -4 -16 -8 -20 -13 -11 -5 7 -3 23 2 35 8 18 8 27 -2 40 -8
8 -14 29 -14 45 -1 16 -8 34 -16 39 -8 5 -10 10 -5 10 6 0 16 -4 24 -9z m166
-12 c11 -16 1 -19 -13 -3 -7 8 -8 14 -3 14 5 0 13 -5 16 -11z m-1210 -28 c-3
-6 -14 -11 -23 -11 -15 1 -15 2 2 15 21 16 32 13 21 -4z m651 -18 c-10 -10
-19 5 -10 18 6 11 8 11 12 0 2 -7 1 -15 -2 -18z m573 -33 c-27 -27 -56 -50
-64 -50 -7 0 -20 -2 -28 -5 -8 -4 -14 0 -14 10 0 8 12 18 26 22 14 4 46 21 71
39 64 47 67 42 9 -16z m-488 17 c-10 -9 -11 -8 -5 6 3 10 9 15 12 12 3 -3 0
-11 -7 -18z m26 -39 c-3 -8 -6 -5 -6 6 -1 11 2 17 5 13 3 -3 4 -12 1 -19z
m183 -36 c0 -13 -5 -32 -11 -43 -8 -15 -7 -25 3 -37 11 -15 11 -15 -3 -5 -9 7
-19 10 -22 6 -4 -3 1 -11 9 -18 12 -8 15 -20 9 -43 -10 -46 -25 -49 -25 -5 l0
38 -20 -25 c-26 -33 -25 -20 1 25 12 19 19 41 16 48 -3 7 1 24 9 38 7 13 14
35 14 49 0 20 2 22 10 10 5 -8 10 -25 10 -38z m-310 8 c0 -16 -4 -30 -10 -30
-11 0 -14 43 -3 53 11 12 13 8 13 -23z m-108 -27 c6 -8 4 -10 -10 -6 -15 3
-18 11 -13 31 4 23 6 24 9 7 2 -11 8 -25 14 -32z m499 -20 c-12 -20 -14 -14
-5 12 4 9 9 14 11 11 3 -2 0 -13 -6 -23z m-413 -44 c-10 -7 -10 -9 2 -9 13 -1
13 -2 -1 -10 -21 -12 -64 -7 -84 10 -16 13 -16 15 2 21 10 4 31 8 46 8 16 1
30 8 35 19 6 14 7 13 10 -7 2 -13 -2 -28 -10 -32z m117 40 c4 -6 14 -8 22 -5
8 3 11 1 8 -4 -3 -5 7 -12 22 -16 15 -4 33 -11 40 -16 8 -6 13 -2 18 11 3 12
14 21 23 21 15 -1 15 -2 -1 -11 -14 -8 -18 -19 -13 -43 3 -17 -2 -53 -10 -81
-10 -37 -13 -41 -10 -15 3 19 8 44 11 55 8 28 -14 53 -50 57 -35 4 -96 38 -89
50 7 11 22 10 29 -3z m-665 -26 c0 -29 -12 -24 -17 7 -2 11 2 20 7 20 6 0 10
-12 10 -27z m-34 -15 c11 -13 25 -35 32 -50 9 -22 8 -31 -7 -49 l-18 -23 -13
25 c-7 13 -22 34 -33 46 l-20 23 -19 -30 c-16 -27 -16 -34 -4 -63 11 -25 15
-27 16 -12 l1 20 8 -20 c5 -11 7 -22 5 -24 -5 -6 -64 23 -64 32 0 5 10 31 22
59 20 47 23 50 54 46 18 -2 30 0 28 4 -3 4 -12 8 -20 8 -15 0 -19 12 -7 23 11
11 18 8 39 -15z m3831 -94 c13 -4 23 -9 23 -13 0 -4 14 -5 31 -3 l32 5 -22
-22 c-18 -18 -20 -25 -11 -37 7 -7 17 -11 23 -7 6 3 2 -6 -9 -20 -19 -26 -34
-35 -34 -19 0 4 5 13 12 20 6 6 9 14 6 18 -4 3 -12 -4 -19 -17 -10 -20 -9 -25
11 -41 12 -10 34 -19 49 -19 23 -2 24 -2 4 -6 -13 -2 -23 -9 -23 -14 0 -6 -8
-5 -21 1 -11 7 -27 9 -34 6 -8 -3 -17 -1 -21 5 -3 6 -12 8 -20 5 -8 -3 -14 -1
-14 4 0 16 -17 12 -24 -6 -3 -8 -2 -12 4 -9 6 3 10 1 10 -5 0 -6 5 -8 10 -5 6
3 10 1 10 -5 0 -6 5 -8 10 -5 6 3 10 0 10 -7 0 -9 3 -9 10 2 5 8 10 10 10 4 0
-6 16 -18 35 -27 35 -17 38 -32 11 -66 -7 -10 -6 -16 7 -26 9 -7 17 -20 17
-29 0 -9 8 -28 17 -42 14 -22 14 -27 2 -35 -12 -7 -11 -9 2 -9 24 0 48 -32 52
-70 3 -31 1 -35 -20 -35 -15 0 -21 5 -18 14 3 9 0 11 -10 7 -8 -3 -15 -1 -15
4 0 6 -7 10 -15 10 -8 0 -15 5 -15 11 0 5 -4 8 -9 5 -5 -3 -11 4 -14 15 -4 14
-10 18 -19 13 -7 -4 -10 -4 -6 0 3 4 -1 17 -10 28 -39 46 -62 68 -70 68 -5 0
-22 19 -38 43 -16 23 -39 53 -51 66 -12 13 -19 30 -16 37 6 17 20 18 25 3 2
-5 19 -12 38 -15 31 -4 33 -3 18 9 -10 8 -15 17 -11 20 3 4 -1 7 -11 7 -9 0
-15 4 -11 9 3 5 -4 12 -15 16 -29 9 -25 26 5 21 14 -3 25 0 25 5 0 12 -89 69
-109 69 -9 0 -23 5 -31 10 -11 8 -9 9 10 5 14 -3 35 -7 48 -8 12 0 22 -5 22
-9 0 -4 4 -8 9 -8 5 0 7 9 4 20 -3 11 -9 17 -14 14 -5 -3 -6 2 -3 10 3 8 12
17 19 20 8 3 11 14 8 28 -4 18 0 16 20 -12 14 -19 23 -38 20 -42 -2 -5 1 -8 6
-8 18 0 13 16 -19 63 -16 25 -30 50 -30 56 0 6 28 -7 62 -30 34 -22 72 -42 85
-45z m413 60 c0 -2 -9 0 -20 6 -11 6 -20 13 -20 16 0 2 9 0 20 -6 11 -6 20
-13 20 -16z m-4395 7 c-3 -5 -1 -12 5 -16 6 -4 8 -11 4 -16 -3 -6 -12 -3 -19
8 -10 13 -10 20 -2 25 16 10 19 10 12 -1z m695 -5 c0 -2 -8 -10 -17 -17 -16
-13 -17 -12 -4 4 13 16 21 21 21 13z m-33 -65 c-4 -20 -2 -31 8 -35 19 -7 20
-36 2 -36 -8 0 -22 -9 -31 -19 -17 -19 -17 -20 11 -34 15 -8 41 -17 58 -21 16
-4 33 -12 36 -18 4 -6 19 -10 34 -10 18 0 29 -7 35 -22 7 -17 9 -13 9 21 1 23
4 44 9 46 4 3 6 -16 5 -41 -2 -45 -2 -45 6 -11 7 34 51 96 51 72 0 -6 -6 -16
-14 -22 -8 -6 -17 -31 -20 -54 -4 -27 -14 -47 -26 -55 -16 -10 -20 -10 -20 2
0 29 -64 35 -110 11 -30 -15 -39 -38 -20 -50 13 -8 13 -65 1 -65 -5 0 -11 -10
-13 -22 -2 -14 -15 -29 -33 -37 -16 -8 -33 -18 -36 -24 -4 -5 -12 -6 -18 -3
-6 4 -11 2 -11 -3 0 -6 -7 -11 -15 -11 -10 0 -15 11 -16 33 -1 23 -3 26 -6 10
-3 -16 -11 -23 -28 -23 -26 0 -50 -20 -60 -49 -7 -23 -45 -36 -45 -15 0 8 6
14 14 14 8 0 18 4 21 10 3 5 0 7 -8 4 -8 -3 -18 0 -23 7 -4 7 -3 10 3 6 6 -4
14 0 17 9 3 9 11 12 18 8 7 -4 10 -4 6 1 -6 7 17 65 26 65 2 0 2 -10 -1 -22
-5 -22 -5 -22 9 -4 8 10 20 16 25 13 25 -15 41 37 18 56 -7 6 -7 10 0 13 6 2
9 24 7 49 -3 38 -2 44 12 39 10 -4 16 -18 16 -35 0 -16 5 -29 11 -29 5 0 7 -4
4 -10 -3 -5 -1 -10 4 -10 6 0 11 -7 11 -15 0 -8 -7 -15 -15 -15 -27 0 -16 -28
13 -32 15 -3 35 -9 45 -13 16 -6 17 -4 11 19 -4 18 -1 33 10 45 16 18 15 20
-10 40 -16 13 -35 19 -46 16 -10 -4 -18 -2 -18 4 0 5 -3 16 -6 25 -5 13 1 16
25 16 17 0 31 5 31 10 0 6 -4 10 -10 10 -17 0 -11 38 6 42 14 2 12 8 -10 36
-15 17 -31 32 -36 32 -4 0 -18 -16 -29 -36 -29 -49 -36 -37 -15 23 12 34 26
53 43 61 14 6 37 23 51 36 32 32 34 32 27 -3z m254 -24 c-13 -13 -26 -3 -16
12 3 6 11 8 17 5 6 -4 6 -10 -1 -17z m-191 -13 c0 -8 -4 -14 -10 -14 -5 0 -10
9 -10 21 0 11 5 17 10 14 6 -3 10 -13 10 -21z m-393 -154 c14 -11 21 -20 16
-20 -5 0 -18 9 -28 20 -10 11 -25 20 -33 20 -10 0 -12 5 -6 18 4 9 10 42 13
72 l6 55 3 -72 c3 -64 6 -75 29 -93z m3383 150 c0 -5 -2 -10 -4 -10 -3 0 -8 5
-11 10 -3 6 -1 10 4 10 6 0 11 -4 11 -10z m360 -11 c0 -6 -4 -7 -10 -4 -5 3
-10 11 -10 16 0 6 5 7 10 4 6 -3 10 -11 10 -16z m-3334 -32 c11 -7 33 -22 49
-35 24 -19 26 -25 14 -35 -7 -7 -10 -8 -7 -3 9 10 -23 41 -64 62 -27 14 -36
24 -20 24 4 -1 16 -6 28 -13z m191 -59 c-3 -8 -6 -5 -6 6 -1 11 2 17 5 13 3
-3 4 -12 1 -19z m-466 -74 c10 -13 31 -94 23 -94 -24 0 -34 16 -28 46 5 29 4
33 -10 28 -9 -3 -13 -10 -10 -16 3 -5 3 -21 -1 -35 -6 -25 -8 -25 -60 -19 -29
3 -61 9 -71 13 -14 5 -16 2 -10 -18 15 -54 19 -84 9 -74 -13 12 -43 102 -43
126 0 26 38 30 97 9 47 -16 55 -17 60 -4 3 8 -2 22 -10 32 -14 16 -13 17 13
19 16 1 34 -5 41 -13z m-234 -76 c-14 -24 -23 -48 -20 -55 2 -6 -1 -14 -6 -18
-7 -3 -8 0 -5 9 10 26 -4 18 -20 -11 -8 -16 -15 -23 -15 -18 -1 20 73 135 87
135 1 0 -8 -19 -21 -42z m202 -61 c-7 -15 -16 -24 -20 -21 -5 3 -1 16 7 30 21
31 29 25 13 -9z m-183 4 c11 9 15 7 20 -7 3 -11 9 -26 14 -35 7 -13 2 -15 -28
-13 -21 2 -41 3 -46 3 -5 1 -2 9 6 19 9 9 14 23 12 30 -1 7 0 8 3 2 3 -8 9 -7
19 1z m-306 -25 c0 -3 -4 -8 -10 -11 -5 -3 -10 -1 -10 4 0 6 5 11 10 11 6 0
10 -2 10 -4z m440 -32 c0 -8 -5 -14 -11 -14 -6 0 -9 6 -6 14 3 7 0 20 -6 27
-10 11 -9 11 6 0 9 -7 17 -20 17 -27z m44 -5 c-8 -14 -24 -10 -24 6 0 9 6 12
15 9 8 -4 12 -10 9 -15z m-541 -73 c-21 -41 -43 -77 -50 -80 -12 -5 34 90 54
112 6 6 15 21 18 33 4 11 9 18 12 16 2 -3 -13 -39 -34 -81z m235 -10 c-3 -24
-4 -24 -38 -9 l-35 15 33 16 c17 9 33 23 33 31 1 9 4 6 6 -6 2 -13 3 -34 1
-47z m89 19 c-17 -26 -25 -31 -35 -23 -30 25 0 71 40 60 15 -4 15 -7 -5 -37z
m329 -42 c-10 -26 -18 -8 -9 23 5 21 8 24 11 11 2 -10 1 -25 -2 -34z m-376
-33 c6 -11 7 -20 2 -20 -6 0 -12 9 -15 20 -3 11 -3 20 -1 20 2 0 8 -9 14 -20z"/>
<path d="M3457 5425 c2 -23 -1 -35 -8 -35 -7 0 -10 -3 -7 -6 3 -3 15 0 26 7
19 12 19 15 6 41 -19 37 -22 35 -17 -7z"/>
<path d="M3630 5271 c0 -5 5 -13 10 -16 6 -3 10 -2 10 4 0 5 -4 13 -10 16 -5
3 -10 2 -10 -4z"/>
<path d="M2194 4934 c3 -9 6 -22 6 -30 0 -8 9 -14 20 -14 13 0 20 7 20 20 0
11 -7 20 -15 20 -8 0 -15 5 -15 10 0 6 -5 10 -11 10 -6 0 -8 -7 -5 -16z"/>
<path d="M2245 4940 c3 -5 8 -10 11 -10 2 0 4 5 4 10 0 6 -5 10 -11 10 -5 0
-7 -4 -4 -10z"/>
<path d="M3615 4690 c3 -5 8 -10 11 -10 2 0 4 5 4 10 0 6 -5 10 -11 10 -5 0
-7 -4 -4 -10z"/>
<path d="M5060 4535 c0 -8 5 -15 10 -15 6 0 10 7 10 15 0 8 -4 15 -10 15 -5 0
-10 -7 -10 -15z"/>
<path d="M723 4313 c9 -2 23 -2 30 0 6 3 -1 5 -18 5 -16 0 -22 -2 -12 -5z"/>
<path d="M815 4289 c-4 -6 -5 -12 -2 -15 2 -3 7 2 10 11 7 17 1 20 -8 4z"/>
<path d="M2955 4171 c-3 -6 16 -12 42 -16 27 -3 62 -8 78 -10 22 -4 26 -2 15
5 -8 5 -30 10 -47 10 -18 0 -33 5 -33 10 0 13 -47 13 -55 1z"/>
<path d="M3300 4116 c0 -2 7 -7 16 -10 8 -3 12 -2 9 4 -6 10 -25 14 -25 6z"/>
<path d="M1310 4063 c0 -11 29 -51 30 -41 0 4 11 3 25 -2 20 -8 27 -6 35 10
11 20 8 22 -57 35 -18 4 -33 3 -33 -2z"/>
<path d="M1550 3924 c0 -8 5 -12 10 -9 6 3 10 10 10 16 0 5 -4 9 -10 9 -5 0
-10 -7 -10 -16z"/>
<path d="M450 849 c0 -5 5 -7 10 -4 6 3 10 8 10 11 0 2 -4 4 -10 4 -5 0 -10
-5 -10 -11z"/>
<path d="M4170 562 c0 -6 -11 -9 -27 -6 -19 3 -23 1 -15 -4 8 -5 13 -12 13
-16 -4 -30 -1 -36 13 -24 8 7 12 15 10 17 -2 2 1 10 8 18 6 7 8 16 4 20 -3 3
-6 1 -6 -5z"/>
<path d="M4030 539 c0 -5 5 -7 10 -4 6 3 10 8 10 11 0 2 -4 4 -10 4 -5 0 -10
-5 -10 -11z"/>
<path d="M792 568 c-17 -17 -15 -35 5 -42 18 -7 33 9 33 37 0 20 -20 23 -38 5z"/>
<path d="M3933 5284 c0 -16 23 -19 31 -5 3 5 -2 11 -12 13 -11 3 -19 0 -19 -8z"/>
<path d="M4051 5154 c10 -12 8 -13 -12 -5 -18 6 -30 5 -44 -6 -19 -14 -18 -15
12 -11 25 4 34 0 39 -14 3 -10 10 -18 16 -18 5 0 8 7 4 15 -3 8 -1 15 4 15 19
0 10 28 -11 33 -17 5 -18 3 -8 -9z"/>
<path d="M4338 5033 c7 -3 16 -2 19 1 4 3 -2 6 -13 5 -11 0 -14 -3 -6 -6z"/>
<path d="M4350 4980 c-8 -5 -10 -10 -5 -10 6 0 17 5 25 10 8 5 11 10 5 10 -5
0 -17 -5 -25 -10z"/>
<path d="M4896 4465 c4 -8 1 -15 -6 -15 -7 0 -2 -9 11 -20 13 -10 20 -19 16
-20 -4 0 -3 -9 3 -20 8 -15 6 -21 -10 -30 -27 -15 -25 -27 5 -27 13 0 22 3 20
8 -3 4 -1 10 5 14 6 4 8 11 5 16 -4 5 1 16 9 24 18 19 11 42 -15 50 -10 4 -19
13 -19 21 0 8 -7 14 -15 14 -9 0 -12 -6 -9 -15z"/>
<path d="M4970 4459 c0 -5 5 -9 11 -9 5 0 8 -4 4 -10 -11 -18 7 -59 28 -62 31
-5 34 -28 3 -28 -13 0 -28 5 -31 10 -10 17 -25 11 -25 -9 0 -10 7 -21 15 -25
8 -3 14 -11 13 -18 -2 -7 12 -17 30 -22 24 -8 32 -16 32 -34 0 -13 4 -20 10
-17 6 3 10 1 10 -4 0 -6 -4 -11 -8 -11 -4 0 -8 -9 -9 -19 -2 -21 22 -35 40
-24 7 3 9 3 5 -2 -4 -4 -3 -16 3 -26 8 -16 6 -19 -15 -19 -14 0 -27 -4 -30 -9
-8 -12 18 -21 60 -21 37 0 47 -19 14 -27 -11 -3 -21 -9 -21 -14 -6 -42 -4 -44
44 -47 45 -2 47 -1 35 18 -7 11 -16 20 -19 20 -4 0 -10 7 -13 16 -5 12 -2 15
10 10 14 -5 15 -4 4 9 -7 8 -9 15 -4 16 5 1 24 2 43 4 18 2 37 8 41 15 11 17
19 -23 9 -42 -6 -12 -3 -17 13 -21 22 -6 41 9 32 25 -3 4 2 5 11 2 13 -5 15
-1 10 24 -5 31 18 54 29 27 3 -8 0 -16 -7 -18 -9 -3 -9 -8 1 -18 6 -7 12 -21
12 -30 0 -20 4 -24 43 -33 17 -4 26 -3 23 3 -11 18 5 39 25 34 11 -3 31 0 44
7 13 7 33 10 44 7 15 -3 25 1 31 14 8 14 7 19 -1 19 -6 0 -22 11 -35 25 -13
14 -32 25 -43 25 -28 0 -37 20 -9 21 22 0 22 1 3 9 -11 5 -33 11 -49 15 -15 3
-26 9 -23 12 4 3 2 14 -4 24 -11 22 -69 27 -69 7 0 -8 -5 -6 -11 4 -5 9 -16
15 -23 12 -8 -3 -17 -1 -21 5 -3 6 1 11 9 11 9 0 16 5 16 10 0 6 -8 10 -18 10
-10 0 -28 12 -41 26 -13 15 -28 23 -37 20 -9 -3 -19 -6 -23 -6 -4 0 -8 -6 -8
-12 0 -7 -3 -23 -7 -35 -6 -18 -3 -23 9 -23 9 0 14 -4 10 -9 -3 -5 -26 2 -51
16 -33 19 -42 28 -32 34 7 5 22 6 33 3 17 -5 16 -2 -7 23 -34 35 -35 43 -5 35
l22 -5 -20 22 c-11 12 -21 18 -23 12 -2 -6 -16 2 -32 19 -33 36 -50 38 -50 8
-1 -22 -1 -22 -15 -4 -8 10 -13 22 -10 25 2 4 -5 8 -16 8 -10 1 -19 -2 -19 -8z
m55 -129 c3 -6 -1 -7 -9 -4 -18 7 -21 14 -7 14 6 0 13 -4 16 -10z m105 -60 c0
-11 -4 -20 -10 -20 -5 0 -10 9 -10 20 0 11 5 20 10 20 6 0 10 -9 10 -20z m40
-40 c0 -5 -2 -10 -4 -10 -3 0 -8 5 -11 10 -3 6 -1 10 4 10 6 0 11 -4 11 -10z
m110 -20 c0 -11 -2 -20 -4 -20 -2 0 -12 -3 -21 -6 -14 -6 -14 -3 -4 20 14 31
29 34 29 6z m80 -1 c0 -6 -4 -7 -10 -4 -5 3 -10 11 -10 16 0 6 5 7 10 4 6 -3
10 -11 10 -16z m26 -16 c-10 -10 -19 5 -10 18 6 11 8 11 12 0 2 -7 1 -15 -2
-18z m-42 -8 c10 -8 22 -12 26 -10 5 3 10 -2 14 -10 6 -16 -5 -20 -18 -7 -8 7
-13 9 -46 11 -11 0 -20 8 -20 16 0 19 19 19 44 0z m-34 -75 c0 -4 -9 -6 -21
-3 -15 4 -17 8 -8 14 14 8 29 3 29 -11z"/>
<path d="M448 4453 c7 -3 16 -2 19 1 4 3 -2 6 -13 5 -11 0 -14 -3 -6 -6z"/>
<path d="M4060 4450 c0 -5 9 -14 19 -19 14 -8 20 -7 24 3 3 8 3 17 0 20 -10
10 -43 7 -43 -4z"/>
<path d="M3958 4443 c7 -3 16 -2 19 1 4 3 -2 6 -13 5 -11 0 -14 -3 -6 -6z"/>
<path d="M848 4433 c6 -2 18 -2 25 0 6 3 1 5 -13 5 -14 0 -19 -2 -12 -5z"/>
<path d="M3940 4410 c0 -5 7 -10 15 -10 8 0 15 5 15 10 0 6 -7 10 -15 10 -8 0
-15 -4 -15 -10z"/>
<path d="M3980 4400 c0 -19 3 -21 12 -12 9 9 9 15 0 24 -9 9 -12 7 -12 -12z"/>
<path d="M5530 4394 c0 -21 4 -25 20 -21 12 3 24 -1 29 -11 5 -9 13 -14 16
-10 7 7 -47 68 -59 68 -3 0 -6 -12 -6 -26z"/>
<path d="M110 4372 c0 -6 9 -12 20 -15 11 -3 20 -3 20 -1 0 2 -9 8 -20 14 -11
6 -20 7 -20 2z"/>
<path d="M187 4373 c-12 -11 -8 -23 8 -23 8 0 15 7 15 15 0 16 -12 20 -23 8z"/>
<path d="M5593 4312 c-23 -3 -29 -13 -16 -25 3 -4 11 -3 17 2 6 5 20 11 31 13
28 5 -2 15 -32 10z"/>
<path d="M6010 4296 c-8 -11 -14 -30 -15 -41 0 -11 -6 -21 -12 -21 -7 -1 -21
-2 -30 -3 -15 -1 -15 -2 2 -15 18 -13 17 -14 -15 -21 -18 -4 -51 -7 -72 -7
-35 1 -38 -2 -38 -26 l-1 -27 -18 23 c-11 12 -24 22 -30 22 -7 0 -23 7 -36 16
-23 15 -25 15 -25 1 0 -9 8 -20 17 -26 10 -5 15 -12 12 -16 -4 -3 -13 0 -21 8
-8 8 -29 18 -46 22 -22 4 -32 12 -32 25 0 10 -6 21 -12 23 -8 3 -6 6 5 6 9 1
17 -6 17 -14 0 -8 5 -15 10 -15 28 0 -19 60 -48 61 -14 0 -14 2 3 9 18 8 18 9
2 9 -10 1 -25 -5 -32 -13 -12 -11 -12 -16 0 -32 16 -21 20 -38 6 -30 -9 6 -22
-44 -14 -56 7 -13 61 -9 66 5 4 9 6 8 6 -2 1 -11 4 -11 18 0 13 11 15 11 9 1
-5 -8 -1 -21 10 -33 21 -24 11 -38 -11 -15 -18 18 -19 18 -57 20 -24 2 -27 -1
-22 -21 4 -13 1 -30 -5 -37 -8 -10 -9 -16 -1 -21 6 -3 8 -11 5 -16 -4 -5 2 -9
12 -9 10 0 27 14 36 30 22 36 41 40 25 5 -6 -14 -15 -25 -20 -25 -4 0 -8 -4
-8 -10 0 -5 10 -10 23 -10 13 0 28 -5 35 -12 6 -6 30 -12 54 -12 24 -1 41 -5
40 -11 -2 -5 -8 -9 -12 -8 -4 1 -46 5 -92 8 -82 5 -83 5 -48 -11 19 -9 38 -22
42 -29 4 -7 19 -16 33 -19 14 -4 23 -10 21 -15 -7 -11 43 -21 105 -21 42 0 49
-3 49 -19 0 -15 -15 -25 -60 -42 -57 -21 -64 -28 -61 -56 1 -9 -15 -11 -64 -6
-36 3 -65 3 -65 0 0 -3 29 -15 65 -26 38 -11 80 -32 100 -50 20 -17 42 -31 50
-31 8 0 15 -6 15 -14 0 -24 38 -45 68 -37 45 12 31 32 -43 62 -97 39 -44 38
72 -1 48 -16 90 -30 93 -30 3 0 -1 -4 -8 -8 -8 -5 0 -8 20 -8 18 0 43 -3 56
-7 20 -8 22 -6 22 31 l0 39 -72 7 c-40 3 -100 7 -132 9 -36 1 -61 7 -64 15 -2
6 -10 12 -18 12 -8 0 -14 5 -14 10 0 12 52 12 149 0 41 -5 91 -7 112 -4 38 6
39 7 39 49 0 38 -2 43 -20 38 -11 -3 -20 0 -20 6 0 6 -7 11 -15 11 -19 0 -19
14 0 30 9 7 14 19 11 26 -3 7 -1 16 4 19 6 4 10 12 10 18 -1 7 -10 1 -22 -13
-14 -16 -22 -21 -25 -12 -3 6 -15 12 -27 12 -20 0 -22 4 -18 27 5 24 6 25 12
8 7 -20 7 -20 11 -1 4 19 4 19 23 1 17 -17 19 -17 28 -2 5 9 18 17 28 17 18 0
20 7 20 95 0 105 -5 113 -67 109 -32 -2 -45 10 -20 18 13 5 18 58 4 58 -4 0
-6 4 -2 9 3 5 1 12 -5 16 -6 4 -8 10 -5 14 2 5 -6 13 -19 19 -19 8 -25 6 -36
-12z m-375 -96 c3 -5 1 -10 -4 -10 -6 0 -11 5 -11 10 0 6 2 10 4 10 3 0 8 -4
11 -10z m190 -90 c3 -5 -3 -10 -15 -10 -12 0 -18 5 -15 10 3 6 10 10 15 10 5
0 12 -4 15 -10z m115 -120 c0 -5 -2 -10 -4 -10 -3 0 -8 5 -11 10 -3 6 -1 10 4
10 6 0 11 -4 11 -10z m-5 -45 c44 -5 55 -9 43 -16 -10 -5 -31 -7 -48 -4 -20 4
-29 2 -25 -5 3 -5 -1 -11 -9 -11 -9 -1 -22 -2 -28 -3 -15 -2 -37 23 -38 42 0
7 5 10 10 7 6 -3 10 -1 10 6 0 8 4 8 13 1 6 -5 39 -13 72 -17z m105 -79 c0 -3
-4 -8 -10 -11 -5 -3 -10 -1 -10 4 0 6 5 11 10 11 6 0 10 -2 10 -4z"/>
<path d="M5388 4293 c7 -3 16 -2 19 1 4 3 -2 6 -13 5 -11 0 -14 -3 -6 -6z"/>
<path d="M5671 4283 c-1 -16 29 -44 40 -37 12 7 1 24 -16 24 -7 0 -16 6 -18
13 -4 8 -6 9 -6 0z"/>
<path d="M5516 4254 c-7 -17 18 -43 42 -44 15 0 15 15 2 41 -13 23 -36 25 -44
3z"/>
<path d="M4455 4240 c3 -5 8 -10 11 -10 2 0 4 5 4 10 0 6 -5 10 -11 10 -5 0
-7 -4 -4 -10z"/>
<path d="M5430 4240 c0 -5 5 -10 10 -10 6 0 10 5 10 10 0 6 -4 10 -10 10 -5 0
-10 -4 -10 -10z"/>
<path d="M4327 4186 c25 -42 27 -43 60 -33 18 6 32 11 30 11 -1 1 -13 10 -26
21 l-24 20 7 -25 7 -25 -15 26 c-8 14 -26 30 -40 37 l-25 11 26 -43z"/>
<path d="M4390 4223 c0 -6 8 -17 18 -24 16 -13 16 -13 2 6 -8 11 -16 22 -17
24 -2 2 -3 0 -3 -6z"/>
<path d="M4517 4201 c12 -15 19 -16 28 -8 17 16 9 27 -20 27 -23 0 -24 -1 -8
-19z"/>
<path d="M5690 4210 c0 -5 5 -10 11 -10 5 0 7 5 4 10 -3 6 -8 10 -11 10 -2 0
-4 -4 -4 -10z"/>
<path d="M4575 4150 c-3 -5 1 -10 10 -10 9 0 13 5 10 10 -3 6 -8 10 -10 10 -2
0 -7 -4 -10 -10z"/>
<path d="M4610 4146 c0 -7 11 -25 25 -40 14 -15 25 -22 25 -17 0 6 5 11 11 11
5 0 7 -4 4 -10 -9 -14 8 -12 24 3 11 10 13 10 7 0 -4 -7 -2 -13 3 -13 16 0 11
13 -25 68 -1 2 -19 5 -38 7 -24 2 -36 -1 -36 -9z"/>
<path d="M4980 4156 c0 -3 12 -18 26 -33 l26 -28 -4 30 c-2 22 -9 31 -25 33
-13 2 -23 1 -23 -2z"/>
<path d="M4395 4140 c4 -6 11 -8 16 -5 14 9 11 15 -7 15 -8 0 -12 -5 -9 -10z"/>
<path d="M4373 4125 c0 -8 4 -12 9 -9 5 3 6 10 3 15 -9 13 -12 11 -12 -6z"/>
<path d="M4505 4130 c3 -5 8 -10 11 -10 2 0 4 5 4 10 0 6 -5 10 -11 10 -5 0
-7 -4 -4 -10z"/>
<path d="M4800 4089 c0 -6 7 -8 16 -5 8 3 13 2 10 -3 -3 -5 0 -11 8 -14 10 -4
12 0 9 14 -6 20 -43 27 -43 8z"/>
<path d="M4955 4000 c-9 -15 31 -28 108 -35 37 -4 67 -11 67 -16 0 -5 -8 -9
-17 -10 -10 0 5 -7 32 -15 61 -17 110 -15 110 6 1 23 -15 30 -72 30 -29 0 -53
4 -53 8 0 11 -104 42 -140 42 -16 0 -32 -4 -35 -10z"/>
<path d="M4360 3980 c0 -6 7 -10 15 -10 8 0 15 2 15 4 0 2 -7 6 -15 10 -8 3
-15 1 -15 -4z"/>
<path d="M4386 3935 c-9 -26 -7 -32 5 -12 6 10 9 21 6 23 -2 3 -7 -2 -11 -11z"/>
<path d="M4988 3943 c6 -2 18 -2 25 0 6 3 1 5 -13 5 -14 0 -19 -2 -12 -5z"/>
<path d="M6145 3931 c-3 -5 -1 -12 5 -16 5 -3 10 1 10 9 0 18 -6 21 -15 7z"/>
<path d="M4397 3823 c-11 -10 -8 -33 4 -33 6 0 9 6 6 14 -3 8 -1 17 6 20 7 3
8 5 1 5 -6 1 -14 -2 -17 -6z"/>
<path d="M5327 3808 c-9 -33 10 -58 42 -58 42 0 58 23 37 55 -22 33 -71 35
-79 3z"/>
<path d="M1148 3803 c7 -3 16 -2 19 1 4 3 -2 6 -13 5 -11 0 -14 -3 -6 -6z"/>
<path d="M5052 3783 c-12 -31 -25 -85 -16 -65 3 7 22 11 42 11 l37 -1 -30 -8
c-16 -4 -22 -8 -12 -9 10 0 16 -5 12 -10 -3 -5 0 -13 6 -17 6 -3 15 -1 19 6 5
8 17 10 34 6 23 -6 26 -3 26 20 0 17 -6 28 -20 31 -11 3 -20 13 -21 22 0 11
-3 9 -9 -6 -9 -23 -34 -31 -44 -14 -4 5 3 7 14 4 22 -6 26 8 10 38 -15 27 -36
24 -48 -8z"/>
<path d="M5212 3789 c-14 -37 -2 -57 15 -24 11 19 12 30 4 38 -7 7 -13 3 -19
-14z"/>
<path d="M1198 3793 c7 -3 16 -2 19 1 4 3 -2 6 -13 5 -11 0 -14 -3 -6 -6z"/>
<path d="M4873 3786 c0 -7 6 -13 14 -13 7 0 13 4 13 8 0 4 -6 9 -13 12 -8 3
-14 0 -14 -7z"/>
<path d="M1273 3783 c9 -2 23 -2 30 0 6 3 -1 5 -18 5 -16 0 -22 -2 -12 -5z"/>
<path d="M1348 3753 c7 -3 16 -2 19 1 4 3 -2 6 -13 5 -11 0 -14 -3 -6 -6z"/>
<path d="M4877 3751 c6 -7 9 -20 6 -27 -3 -8 -3 -14 0 -14 14 0 14 30 -1 41
-14 11 -15 11 -5 0z"/>
<path d="M1413 3743 c9 -2 23 -2 30 0 6 3 -1 5 -18 5 -16 0 -22 -2 -12 -5z"/>
<path d="M1493 3733 c9 -2 23 -2 30 0 6 3 -1 5 -18 5 -16 0 -22 -2 -12 -5z"/>
<path d="M1588 3723 c7 -3 16 -2 19 1 4 3 -2 6 -13 5 -11 0 -14 -3 -6 -6z"/>
<path d="M5040 3690 c0 -5 5 -10 11 -10 5 0 7 5 4 10 -3 6 -8 10 -11 10 -2 0
-4 -4 -4 -10z"/>
<path d="M4493 3566 c0 -8 9 -11 24 -8 27 5 25 11 -4 16 -11 3 -20 -1 -20 -8z"/>
<path d="M4947 3390 c3 -11 9 -17 15 -14 5 3 4 12 -3 20 -16 19 -18 18 -12 -6z"/>
<path d="M5963 3286 c-14 -16 -7 -26 17 -26 9 0 16 8 16 20 0 23 -15 26 -33 6z"/>
<path d="M6063 3275 c-18 -20 -16 -25 11 -25 19 0 23 4 19 20 -6 23 -13 25
-30 5z"/>
<path d="M4653 3168 c1 -7 -4 -12 -11 -10 -8 1 -11 -2 -7 -8 5 -8 11 -8 19 -1
16 13 29 2 16 -13 -6 -8 -3 -12 10 -12 10 0 16 4 14 8 -3 4 1 8 8 9 7 0 3 5
-9 11 -13 6 -23 15 -23 20 0 4 -4 8 -10 8 -5 0 -9 -6 -7 -12z"/>
<path d="M4950 3130 c-6 -11 -10 -29 -8 -39 3 -17 5 -16 25 3 19 18 20 23 8
39 -13 18 -14 18 -25 -3z"/>
<path d="M4975 3089 c-21 -19 -34 -38 -31 -46 3 -8 1 -11 -4 -8 -6 3 -10 -1
-10 -10 0 -9 4 -14 8 -11 11 7 29 -28 37 -71 8 -40 25 -43 25 -5 1 15 7 54 15
87 26 105 19 116 -40 64z"/>
<path d="M4934 2848 c4 -46 10 -99 14 -118 l8 -35 13 50 c12 51 9 92 -10 153
-20 61 -32 37 -25 -50z"/>
<path d="M4825 2468 c-2 -7 -6 -60 -8 -118 -5 -119 5 -175 17 -97 4 26 11 45
16 42 5 -3 5 8 0 25 -5 19 -5 30 1 30 6 0 5 8 -1 20 -7 13 -7 20 -1 20 6 0 7
7 4 17 -4 10 -2 14 5 9 7 -4 8 2 2 23 -4 16 -6 32 -2 35 3 3 -2 6 -12 6 -9 0
-18 -6 -21 -12z"/>
<path d="M4790 2199 c0 -11 -4 -18 -9 -15 -5 4 -7 -3 -4 -14 3 -11 9 -23 14
-26 5 -3 6 2 3 10 -3 9 -2 16 2 16 5 0 9 11 9 25 0 14 -3 25 -7 25 -5 0 -8 -9
-8 -21z"/>
<path d="M200 2125 c0 -3 7 -14 16 -23 15 -14 16 -14 13 3 -4 17 -29 35 -29
20z"/>
<path d="M4766 2073 c-6 -14 -5 -15 5 -6 7 7 10 15 7 18 -3 3 -9 -2 -12 -12z"/>
<path d="M671 2033 c-7 -8 -10 -17 -6 -21 3 -3 10 0 15 8 7 11 10 12 10 2 0
-7 5 -10 10 -7 6 3 10 11 10 16 0 6 -4 8 -9 5 -5 -4 -11 -2 -13 3 -1 5 -9 2
-17 -6z"/>
<path d="M190 1889 c0 -5 5 -7 10 -4 6 3 10 8 10 11 0 2 -4 4 -10 4 -5 0 -10
-5 -10 -11z"/>
<path d="M1740 1881 c0 -11 4 -22 9 -25 4 -3 6 6 3 19 -5 30 -12 33 -12 6z"/>
<path d="M1336 1867 c3 -10 9 -15 12 -12 3 3 0 11 -7 18 -10 9 -11 8 -5 -6z"/>
<path d="M1510 1860 c0 -11 4 -20 9 -20 5 0 7 9 4 20 -3 11 -7 20 -9 20 -2 0
-4 -9 -4 -20z"/>
<path d="M250 1861 c0 -5 7 -12 16 -15 14 -5 15 -4 4 9 -14 17 -20 19 -20 6z"/>
<path d="M4587 1836 c-3 -8 -2 -18 3 -21 13 -8 24 15 12 27 -6 6 -11 4 -15 -6z"/>
<path d="M1210 1832 c0 -5 7 -9 15 -9 8 0 12 4 9 9 -3 4 -9 8 -15 8 -5 0 -9
-4 -9 -8z"/>
<path d="M1061 1784 c0 -11 3 -14 6 -6 3 7 2 16 -1 19 -3 4 -6 -2 -5 -13z"/>
<path d="M2710 1789 c0 -5 5 -7 10 -4 6 3 10 8 10 11 0 2 -4 4 -10 4 -5 0 -10
-5 -10 -11z"/>
<path d="M1800 1786 c0 -2 7 -6 15 -10 8 -3 15 -1 15 4 0 6 -7 10 -15 10 -8 0
-15 -2 -15 -4z"/>
<path d="M2765 1770 c3 -5 8 -10 11 -10 2 0 4 5 4 10 0 6 -5 10 -11 10 -5 0
-7 -4 -4 -10z"/>
<path d="M4575 1771 c-3 -5 -2 -12 3 -15 5 -3 9 1 9 9 0 17 -3 19 -12 6z"/>
<path d="M220 1759 c0 -5 5 -7 10 -4 6 3 10 8 10 11 0 2 -4 4 -10 4 -5 0 -10
-5 -10 -11z"/>
<path d="M6130 1741 c-15 -30 -12 -33 10 -11 22 22 25 30 10 30 -5 0 -14 -9
-20 -19z"/>
<path d="M112 1721 c2 -8 -11 -18 -29 -25 -18 -6 -44 -26 -58 -45 -14 -19 -25
-36 -25 -36 0 -1 10 -1 22 0 13 2 22 8 20 14 -1 7 1 10 6 7 5 -3 35 13 68 35
41 27 53 39 39 39 -12 0 -27 6 -34 13 -10 10 -12 9 -9 -2z"/>
<path d="M1475 1720 c3 -5 8 -10 11 -10 2 0 4 5 4 10 0 6 -5 10 -11 10 -5 0
-7 -4 -4 -10z"/>
<path d="M1277 1699 c4 -13 8 -18 11 -10 2 7 -1 18 -6 23 -8 8 -9 4 -5 -13z"/>
<path d="M5900 1690 c0 -5 5 -10 11 -10 5 0 7 5 4 10 -3 6 -8 10 -11 10 -2 0
-4 -4 -4 -10z"/>
<path d="M5821 1683 c-1 -7 -9 -10 -18 -7 -15 5 -15 3 2 -11 20 -16 31 -7 22
18 -4 9 -6 9 -6 0z"/>
<path d="M6090 1680 c-8 -5 -23 -7 -32 -4 -23 7 -60 -28 -52 -49 6 -16 -4 -21
-60 -29 -13 -2 -6 -9 25 -25 24 -12 46 -18 47 -13 6 16 22 12 22 -5 0 -8 5
-24 11 -34 12 -17 13 -17 30 0 11 11 33 19 49 19 26 0 30 4 30 28 0 19 -3 23
-9 13 -12 -19 -31 -4 -31 25 0 14 -6 25 -15 25 -8 1 -19 3 -25 4 -5 1 -13 3
-16 4 -14 3 27 31 45 31 12 0 21 5 21 10 0 13 -20 13 -40 0z"/>
<path d="M370 1670 c0 -5 5 -10 11 -10 5 0 7 5 4 10 -3 6 -8 10 -11 10 -2 0
-4 -4 -4 -10z"/>
<path d="M2990 1660 c0 -5 5 -10 11 -10 5 0 7 5 4 10 -3 6 -8 10 -11 10 -2 0
-4 -4 -4 -10z"/>
<path d="M5930 1655 c0 -16 16 -20 24 -6 3 5 -1 11 -9 15 -9 3 -15 0 -15 -9z"/>
<path d="M5434 1642 c-15 -10 -34 -47 -34 -66 0 -12 11 -16 49 -16 44 0 49 -2
44 -20 -6 -23 15 -27 36 -7 11 10 14 9 18 -1 3 -6 9 -10 14 -6 5 3 13 -6 18
-19 6 -14 15 -28 20 -32 17 -10 13 -22 -9 -28 -24 -6 -26 -22 -4 -31 9 -3 25
4 40 21 13 14 24 21 24 15 0 -6 3 -18 7 -28 4 -12 2 -15 -8 -12 -8 3 -22 -2
-32 -10 -15 -13 -20 -14 -26 -3 -7 10 -11 9 -22 -6 -8 -11 -23 -22 -33 -26
-16 -6 -17 -5 -6 8 17 21 1 19 -23 -2 -19 -17 -19 -17 -13 4 6 18 4 22 -8 17
-9 -3 -16 -1 -16 5 0 6 -5 11 -11 11 -6 0 -9 -7 -5 -15 6 -17 -9 -21 -19 -5
-3 6 -13 10 -22 10 -13 0 -13 -3 -3 -15 7 -8 24 -15 39 -15 28 -1 50 -15 66
-44 6 -10 15 -18 20 -17 4 1 14 -10 22 -26 l13 -28 -4 29 c-2 18 3 35 14 46
17 17 18 17 23 -1 3 -12 0 -19 -9 -19 -9 0 -14 -11 -14 -29 0 -33 23 -44 113
-55 46 -5 47 -5 47 22 -1 42 -23 64 -75 70 -52 5 -52 10 1 22 24 6 45 5 58 -2
12 -6 40 -10 63 -9 23 1 44 -3 48 -9 9 -15 25 -12 25 4 0 32 18 24 22 -10 4
-32 2 -35 -21 -32 -15 1 -25 -2 -25 -7 1 -6 4 -24 7 -41 5 -28 4 -31 -14 -27
-15 4 -22 0 -26 -16 -4 -15 -11 -20 -22 -17 -10 3 -9 1 3 -7 11 -7 40 -30 65
-52 24 -22 41 -34 36 -26 -5 10 -4 12 3 7 7 -4 12 -14 12 -23 0 -9 8 -21 17
-28 14 -11 25 -10 58 3 22 8 46 20 53 25 8 6 12 6 12 -1 0 -10 60 -38 73 -34
5 1 6 -1 3 -6 -2 -4 6 -21 19 -38 l24 -29 1 68 c0 66 0 67 -24 61 -13 -3 -27
-1 -30 5 -9 13 31 34 47 25 8 -5 7 -2 -2 9 -9 11 -10 17 -2 17 8 0 11 38 10
127 -1 105 -4 130 -18 140 -15 12 -15 14 2 24 28 17 20 44 -19 63 -20 9 -38
15 -40 13 -2 -1 3 -15 11 -30 9 -18 10 -27 2 -27 -6 0 -3 -6 7 -13 16 -12 17
-15 3 -20 -8 -3 -21 1 -27 9 -7 8 -18 14 -24 14 -7 0 -12 10 -13 21 -3 31 -21
47 -29 26 -8 -22 -28 -22 -50 0 -13 13 -19 14 -22 5 -2 -7 -8 -10 -13 -6 -14
8 -11 -4 16 -53 13 -26 22 -49 18 -52 -3 -3 -8 0 -10 7 -8 21 -21 13 -16 -9 4
-14 0 -26 -9 -33 -14 -10 -14 -17 -3 -50 14 -39 10 -70 -6 -60 -5 3 -7 10 -4
15 4 5 2 9 -4 9 -5 0 -9 10 -9 23 3 46 -3 73 -21 97 -17 21 -21 22 -37 10 -16
-14 -17 -13 -11 3 4 10 3 16 -2 13 -5 -3 -12 1 -15 10 -9 23 -8 24 14 24 19 0
19 1 -2 45 -16 33 -25 42 -34 34 -9 -7 -16 -6 -25 4 -7 7 -23 12 -35 9 -17 -3
-24 -12 -26 -36 -5 -43 8 -70 42 -84 32 -15 31 -42 -2 -42 -10 0 -16 -4 -13
-10 8 -13 -5 -13 -25 0 -11 7 -12 10 -2 10 20 0 4 41 -24 65 -17 13 -24 29
-22 47 3 36 18 25 18 -14 0 -46 10 -28 14 24 2 25 7 51 10 57 4 6 4 16 0 22
-4 7 1 7 16 -1 12 -6 24 -9 28 -6 3 3 0 6 -6 6 -7 0 -12 6 -12 14 0 18 -35 27
-49 13 -8 -8 -11 -8 -11 1 0 18 -46 10 -59 -10 -8 -13 -8 -18 1 -18 6 0 9 -3
5 -6 -3 -3 -2 -17 3 -30 11 -28 -9 -34 -31 -8 -10 13 -10 17 2 25 9 6 -2 7
-32 4 -37 -5 -49 -2 -64 15 -10 11 -15 23 -12 27 7 6 -21 43 -32 43 -3 0 -11
-4 -17 -8z m256 -61 c0 -17 -12 -41 -21 -41 -4 0 -6 7 -2 17 5 13 2 15 -15 11
-21 -6 -29 2 -15 15 10 10 53 8 53 -2z m90 -86 c0 -8 -2 -15 -4 -15 -2 0 -6 7
-10 15 -3 8 -1 15 4 15 6 0 10 -7 10 -15z m366 -30 c1 -8 -2 -15 -7 -15 -5 0
-9 10 -9 22 0 23 12 17 16 -7z m-381 -5 c-3 -5 -10 -10 -16 -10 -5 0 -9 5 -9
10 0 6 7 10 16 10 8 0 12 -4 9 -10z m50 -51 c4 -11 4 -23 1 -26 -3 -4 -6 1 -6
10 0 10 -4 17 -10 17 -5 0 -10 5 -10 10 0 18 19 10 25 -11z m315 -39 c-10 -7
-11 -10 -2 -10 6 0 12 -8 12 -17 -1 -17 -1 -17 -14 0 -17 22 -9 64 8 47 8 -8
7 -13 -4 -20z m-90 -9 c0 -5 -6 -12 -12 -14 -7 -3 1 -6 17 -6 21 -1 26 -4 16
-10 -10 -6 -5 -11 18 -16 57 -12 28 -15 -44 -4 -81 13 -97 23 -69 44 21 16 74
20 74 6z m-65 -61 c-3 -5 -11 -10 -16 -10 -6 0 -7 5 -4 10 3 6 11 10 16 10 6
0 7 -4 4 -10z m-80 -50 c10 -11 15 -23 12 -26 -3 -4 -2 -15 4 -25 9 -17 7 -18
-16 -7 -22 10 -23 13 -10 20 20 12 20 32 -1 24 -8 -3 -12 -2 -9 3 3 6 -3 14
-12 20 -15 9 -16 10 -2 11 9 0 24 -9 34 -20z m-11 -77 c9 4 13 1 10 -6 -3 -10
-64 -21 -64 -11 0 1 3 10 6 18 5 13 9 14 20 5 8 -6 20 -9 28 -6z m146 -62 c0
-14 -6 -17 -26 -13 l-27 5 24 13 c31 17 29 17 29 -5z"/>
<path d="M740 1630 c0 -5 5 -10 11 -10 5 0 7 5 4 10 -3 6 -8 10 -11 10 -2 0
-4 -4 -4 -10z"/>
<path d="M1485 1630 c-4 -6 3 -10 14 -10 25 0 27 6 6 13 -8 4 -17 2 -20 -3z"/>
<path d="M6135 1631 c-6 -11 9 -23 19 -14 9 9 7 23 -3 23 -6 0 -12 -4 -16 -9z"/>
<path d="M1720 1620 c0 -5 5 -10 11 -10 5 0 7 5 4 10 -3 6 -8 10 -11 10 -2 0
-4 -4 -4 -10z"/>
<path d="M4918 1611 c3 -9 1 -12 -6 -7 -18 11 -14 -2 9 -35 20 -29 39 -38 39
-19 0 6 -7 10 -15 10 -21 0 -19 13 5 35 27 24 25 30 -9 30 -20 0 -27 -4 -23
-14z"/>
<path d="M405 1600 c-3 -5 -1 -10 4 -10 6 0 11 5 11 10 0 6 -2 10 -4 10 -3 0
-8 -4 -11 -10z"/>
<path d="M208 1558 c-52 -24 -88 -48 -91 -58 -3 -13 0 -17 9 -13 8 3 14 10 14
17 0 7 3 7 8 -1 5 -8 37 -13 87 -14 51 -1 88 -7 102 -16 13 -9 23 -11 23 -5 0
22 -31 33 -110 39 l-82 6 57 32 c50 29 88 56 75 54 -3 0 -44 -18 -92 -41z"/>
<path d="M436 1585 c-3 -8 -1 -15 4 -15 6 0 10 7 10 15 0 8 -2 15 -4 15 -2 0
-6 -7 -10 -15z"/>
<path d="M5041 1576 c13 -27 39 -43 39 -23 0 7 -12 20 -25 30 l-25 18 11 -25z"/>
<path d="M5766 1592 c-3 -5 1 -9 9 -9 8 0 12 4 9 9 -3 4 -7 8 -9 8 -2 0 -6 -4
-9 -8z"/>
<path d="M833 1568 c1 -10 4 -18 8 -18 4 0 9 8 11 18 3 11 0 19 -8 19 -7 0
-12 -9 -11 -19z"/>
<path d="M5840 1580 c0 -5 7 -10 16 -10 8 0 12 5 9 10 -3 6 -10 10 -16 10 -5
0 -9 -4 -9 -10z"/>
<path d="M1220 1571 c0 -5 5 -13 10 -16 6 -3 10 -2 10 4 0 5 -4 13 -10 16 -5
3 -10 2 -10 -4z"/>
<path d="M5880 1559 c0 -6 -6 -9 -14 -6 -8 3 -20 -1 -27 -10 -11 -13 -10 -17
4 -28 9 -6 14 -15 11 -18 -8 -8 5 -47 16 -47 4 0 13 13 18 29 10 28 9 30 -19
36 -29 7 -37 19 -19 30 6 3 10 1 10 -4 0 -6 7 -11 15 -11 8 0 15 9 15 20 0 11
-2 20 -5 20 -3 0 -5 -5 -5 -11z"/>
<path d="M5165 1550 c-3 -5 -3 -10 2 -10 4 0 1 -5 -7 -11 -12 -8 -12 -10 -1
-7 8 2 15 12 17 21 3 19 -2 22 -11 7z"/>
<path d="M788 1543 c7 -3 16 -2 19 1 4 3 -2 6 -13 5 -11 0 -14 -3 -6 -6z"/>
<path d="M1136 1541 c-3 -5 2 -15 12 -22 15 -12 16 -12 5 2 -7 9 -10 19 -6 22
3 4 4 7 0 7 -3 0 -8 -4 -11 -9z"/>
<path d="M1350 1540 c0 -5 9 -14 20 -20 19 -10 20 -10 8 9 -13 22 -28 28 -28
11z"/>
<path d="M4960 1535 c-7 -8 -9 -15 -4 -15 5 0 2 -5 -6 -10 -12 -7 -11 -9 5 -9
64 -1 166 -10 175 -16 6 -3 10 3 10 16 0 12 -3 19 -7 16 -3 -4 -13 -1 -21 6
-13 10 -14 9 -7 -2 6 -11 3 -13 -16 -6 -31 10 -80 11 -101 1 -13 -6 -15 -3
-11 13 6 25 0 27 -17 6z"/>
<path d="M5910 1540 c0 -5 3 -10 8 -11 4 0 17 -2 30 -3 13 -2 26 2 29 7 4 6
-5 8 -21 5 -14 -3 -26 -1 -26 3 0 5 -4 9 -10 9 -5 0 -10 -4 -10 -10z"/>
<path d="M500 1530 c0 -5 5 -10 11 -10 5 0 7 5 4 10 -3 6 -8 10 -11 10 -2 0
-4 -4 -4 -10z"/>
<path d="M50 1527 c0 -9 31 -37 40 -37 5 0 7 7 3 15 -3 9 -8 13 -11 11 -3 -3
-11 -1 -19 5 -7 6 -13 9 -13 6z"/>
<path d="M5222 1496 c-10 -22 -9 -23 19 -17 34 7 39 22 11 32 -15 6 -22 2 -30
-15z"/>
<path d="M1180 1502 c0 -8 -5 -10 -12 -6 -8 5 -9 2 -5 -9 4 -10 1 -17 -6 -17
-8 0 -11 -17 -9 -55 3 -46 6 -54 18 -44 8 6 11 16 7 22 -3 6 -1 7 6 3 17 -11
25 22 13 49 -8 18 -8 26 0 31 7 4 8 3 4 -4 -11 -18 0 -14 15 5 8 10 9 14 2 10
-7 -4 -16 0 -22 10 -6 11 -11 13 -11 5z"/>
<path d="M1230 1500 c0 -5 7 -10 15 -10 8 0 15 5 15 10 0 6 -7 10 -15 10 -8 0
-15 -4 -15 -10z"/>
<path d="M4884 1491 c14 -16 18 -36 17 -98 -1 -102 -5 -118 -47 -213 -50 -114
-99 -195 -160 -265 -41 -47 -48 -61 -34 -61 10 0 17 3 15 7 -3 3 16 25 40 48
25 23 45 49 45 57 0 7 6 14 13 14 7 0 23 18 37 40 14 22 28 40 33 40 4 0 6 4
2 9 -3 6 3 14 12 20 10 6 15 11 11 11 -4 0 4 30 18 68 35 90 53 204 41 262 -9
45 -31 80 -50 80 -6 0 -2 -9 7 -19z"/>
<path d="M17 1486 c-12 -9 -17 -27 -17 -58 0 -50 10 -58 75 -58 17 0 36 -5 42
-11 8 -8 14 -5 23 11 10 18 10 21 -2 14 -10 -6 -11 -5 -1 7 9 11 7 20 -10 40
-20 24 -86 52 -73 31 3 -5 -7 -7 -22 -4 l-27 5 28 12 c15 6 24 14 21 18 -10
10 -16 8 -37 -7z"/>
<path d="M136 1467 c-16 -12 -16 -14 3 -31 12 -11 24 -16 29 -12 4 4 -1 14
-11 21 -13 10 -15 14 -5 18 7 2 10 7 7 11 -3 3 -13 0 -23 -7z"/>
<path d="M768 1473 c7 -3 16 -2 19 1 4 3 -2 6 -13 5 -11 0 -14 -3 -6 -6z"/>
<path d="M1780 1469 c0 -5 5 -7 10 -4 6 3 10 8 10 11 0 2 -4 4 -10 4 -5 0 -10
-5 -10 -11z"/>
<path d="M4998 1473 c7 -3 16 -2 19 1 4 3 -2 6 -13 5 -11 0 -14 -3 -6 -6z"/>
<path d="M725 1460 c-3 -6 1 -7 9 -4 18 7 21 14 7 14 -6 0 -13 -4 -16 -10z"/>
<path d="M938 1448 c-20 -7 -28 -17 -28 -34 0 -13 -5 -24 -11 -24 -6 0 -9 7
-6 15 4 8 2 17 -2 20 -5 2 -11 -9 -13 -25 -5 -32 9 -39 30 -18 10 10 18 9 40
-4 41 -24 58 -10 46 38 -10 42 -18 46 -56 32z"/>
<path d="M1607 1449 c7 -7 15 -10 18 -7 3 3 -2 9 -12 12 -14 6 -15 5 -6 -5z"/>
<path d="M5015 1450 c3 -5 11 -10 16 -10 6 0 7 5 4 10 -3 6 -11 10 -16 10 -6
0 -7 -4 -4 -10z"/>
<path d="M5200 1443 c0 -10 -3 -28 -6 -40 -5 -20 -2 -21 58 -25 56 -4 97 6 83
20 -3 3 0 11 6 19 9 10 8 13 -5 13 -9 0 -16 7 -16 15 0 22 -56 20 -65 -2 -6
-17 -7 -17 -16 0 -6 9 -17 17 -24 17 -8 0 -15 -8 -15 -17z"/>
<path d="M200 1435 c-7 -9 -8 -15 -2 -15 5 0 12 7 16 15 3 8 4 15 2 15 -2 0
-9 -7 -16 -15z"/>
<path d="M1412 1430 c0 -14 2 -19 5 -12 2 6 2 18 0 25 -3 6 -5 1 -5 -13z"/>
<path d="M2235 1440 c-3 -5 -1 -10 4 -10 6 0 11 5 11 10 0 6 -2 10 -4 10 -3 0
-8 -4 -11 -10z"/>
<path d="M5551 1438 c0 -9 -7 -19 -13 -21 -10 -4 -9 -8 2 -16 17 -12 25 6 17
37 -4 15 -5 15 -6 0z"/>
<path d="M1847 1429 c7 -7 15 -10 18 -7 3 3 -2 9 -12 12 -14 6 -15 5 -6 -5z"/>
<path d="M5038 1409 c22 -58 8 -194 -23 -219 -8 -7 -13 -16 -10 -20 3 -4 -2
-11 -11 -14 -9 -4 -14 -13 -10 -21 3 -8 1 -15 -4 -15 -6 0 -10 -8 -10 -18 0
-10 -7 -27 -15 -38 -8 -12 -11 -24 -8 -28 3 -3 1 -6 -5 -6 -7 0 -12 -8 -12
-17 0 -10 -9 -29 -20 -43 -11 -14 -20 -31 -20 -37 0 -7 -4 -13 -10 -13 -5 0
-10 -7 -10 -15 0 -8 -4 -15 -9 -15 -5 0 -11 -8 -14 -17 -3 -10 -15 -34 -27
-53 -12 -19 -13 -24 -3 -10 10 14 28 35 40 48 12 12 20 22 17 22 -2 0 8 18 22
40 15 22 31 37 37 33 6 -3 7 -1 3 5 -4 6 4 28 17 49 13 21 30 53 38 71 8 17
17 32 20 32 3 0 6 6 6 13 1 11 14 52 34 102 22 58 16 172 -11 199 -8 8 -9 5
-2 -15z"/>
<path d="M250 1403 c0 -10 4 -14 8 -8 4 6 11 13 16 18 5 4 2 7 -7 7 -10 0 -17
-8 -17 -17z"/>
<path d="M1430 1400 c0 -5 7 -10 16 -10 8 0 12 5 9 10 -3 6 -10 10 -16 10 -5
0 -9 -4 -9 -10z"/>
<path d="M5354 1394 c1 -9 10 -20 18 -25 14 -8 15 -6 5 16 -13 28 -26 33 -23
9z"/>
<path d="M1050 1393 c0 -5 4 -14 9 -21 7 -11 9 -11 14 1 3 8 3 18 0 21 -9 8
-23 7 -23 -1z"/>
<path d="M1558 1388 c5 -5 16 -8 23 -6 8 3 3 7 -10 11 -17 4 -21 3 -13 -5z"/>
<path d="M2021 1380 c14 -31 19 -36 19 -24 0 6 -7 19 -16 30 -14 18 -14 18 -3
-6z"/>
<path d="M805 1380 c3 -5 8 -10 11 -10 2 0 4 5 4 10 0 6 -5 10 -11 10 -5 0 -7
-4 -4 -10z"/>
<path d="M1470 1386 c0 -2 7 -9 15 -16 9 -7 15 -8 15 -2 0 5 -7 12 -15 16 -8
3 -15 4 -15 2z"/>
<path d="M1845 1376 c-18 -13 -18 -14 4 -21 14 -4 27 -2 35 5 8 10 7 12 -6 7
-12 -4 -15 -2 -11 9 7 18 2 18 -22 0z"/>
<path d="M2050 1369 c6 -10 14 -21 20 -24 5 -3 7 -12 4 -19 -3 -8 4 -15 20
-18 l24 -5 -20 28 c-11 15 -18 32 -14 37 3 5 -5 12 -19 14 -21 4 -23 3 -15
-13z"/>
<path d="M4590 1383 c0 -5 5 -15 10 -23 8 -12 10 -11 10 8 0 12 -4 22 -10 22
-5 0 -10 -3 -10 -7z"/>
<path d="M1420 1353 c0 -4 87 -43 96 -43 2 0 4 5 4 10 0 6 -12 15 -27 21 -30
12 -73 19 -73 12z"/>
<path d="M1588 1353 c7 -3 16 -2 19 1 4 3 -2 6 -13 5 -11 0 -14 -3 -6 -6z"/>
<path d="M2496 1344 c-9 -24 -2 -26 12 -4 7 11 8 20 3 20 -5 0 -12 -7 -15 -16z"/>
<path d="M2035 1330 c-3 -5 -1 -10 4 -10 6 0 11 5 11 10 0 6 -2 10 -4 10 -3 0
-8 -4 -11 -10z"/>
<path d="M1430 1320 c8 -5 20 -10 25 -10 6 0 3 5 -5 10 -8 5 -19 10 -25 10 -5
0 -3 -5 5 -10z"/>
<path d="M1850 1326 c0 -2 8 -10 18 -17 15 -13 16 -12 3 4 -13 16 -21 21 -21
13z"/>
<path d="M2130 1311 c0 -12 7 -24 15 -27 8 -4 15 -12 15 -20 0 -8 4 -14 9 -14
5 0 17 -3 26 -6 13 -5 16 -2 13 17 -2 18 -9 23 -25 22 -15 -2 -23 4 -25 19 -4
29 -28 36 -28 9z"/>
<path d="M2190 1320 c0 -5 5 -10 11 -10 5 0 7 5 4 10 -3 6 -8 10 -11 10 -2 0
-4 -4 -4 -10z"/>
<path d="M715 1310 c-3 -5 -1 -10 4 -10 6 0 11 5 11 10 0 6 -2 10 -4 10 -3 0
-8 -4 -11 -10z"/>
<path d="M5772 1312 c-9 -7 -8 -13 8 -27 20 -18 20 -18 20 8 0 28 -6 32 -28
19z"/>
<path d="M1954 1289 c14 -11 31 -17 36 -14 17 11 -9 35 -38 35 l-25 0 27 -21z"/>
<path d="M2057 1289 c4 -13 8 -18 11 -10 2 7 -1 18 -6 23 -8 8 -9 4 -5 -13z"/>
<path d="M5495 1290 c3 -5 11 -10 16 -10 6 0 7 5 4 10 -3 6 -11 10 -16 10 -6
0 -7 -4 -4 -10z"/>
<path d="M1250 1266 c0 -8 5 -18 10 -21 6 -3 10 1 10 9 0 8 -4 18 -10 21 -5 3
-10 -1 -10 -9z"/>
<path d="M960 1260 c-8 -5 -10 -10 -5 -10 6 0 17 5 25 10 8 5 11 10 5 10 -5 0
-17 -5 -25 -10z"/>
<path d="M1900 1260 c20 -13 33 -13 25 0 -3 6 -14 10 -23 10 -15 0 -15 -2 -2
-10z"/>
<path d="M5301 1256 c-6 -7 -9 -21 -5 -30 10 -25 19 -19 19 14 1 35 1 34 -14
16z"/>
<path d="M905 1240 c-10 -30 4 -40 44 -32 30 7 32 9 17 21 -9 7 -16 10 -16 6
0 -5 -9 0 -19 9 -18 17 -20 16 -26 -4z"/>
<path d="M2247 1253 c-10 -9 -9 -33 1 -33 4 0 8 9 8 20 0 23 0 22 -9 13z"/>
<path d="M1570 1234 c0 -29 21 -54 45 -54 32 0 32 15 -1 45 -31 29 -44 31 -44
9z"/>
<path d="M2070 1238 c0 -9 5 -20 10 -23 12 -7 14 -46 3 -42 -5 1 -9 -1 -10 -5
-2 -5 -1 -8 2 -8 3 0 14 0 25 0 26 0 25 6 -5 55 -14 23 -25 33 -25 23z"/>
<path d="M2141 1229 c-1 -9 7 -20 16 -23 15 -6 15 -8 3 -16 -13 -9 -13 -10 0
-9 8 0 24 4 35 9 20 8 19 9 -1 9 -12 1 -29 11 -37 24 -13 17 -16 18 -16 6z"/>
<path d="M5791 1224 c0 -11 3 -14 6 -6 3 7 2 16 -1 19 -3 4 -6 -2 -5 -13z"/>
<path d="M5150 1200 c-12 -12 -18 -25 -15 -29 2 -5 -2 -12 -11 -15 -9 -3 -14
-12 -11 -19 4 -11 -22 -57 -50 -85 -11 -12 -13 -8 -11 18 1 17 6 34 10 36 4 3
8 11 8 17 -1 16 -39 -34 -40 -50 0 -7 -5 -13 -11 -13 -5 0 -7 -5 -4 -10 4 -6
10 -8 14 -6 4 3 8 -2 8 -10 0 -10 -4 -11 -11 -4 -5 5 -14 10 -20 10 -5 0 -7
-3 -3 -6 3 -4 0 -13 -8 -20 -8 -8 -11 -22 -8 -31 5 -12 3 -14 -7 -8 -10 6 -12
4 -7 -9 4 -10 3 -15 -3 -11 -6 4 -13 -7 -16 -24 -4 -17 -10 -31 -14 -31 -4 0
-11 -11 -14 -25 -4 -14 -11 -23 -16 -20 -6 3 -10 1 -10 -6 0 -7 -9 -31 -19
-53 -11 -23 -31 -67 -46 -100 -30 -63 -79 -126 -100 -126 -20 0 -51 -48 -74
-115 -11 -33 -24 -59 -29 -58 -10 2 -35 -60 -77 -197 -15 -47 -35 -111 -45
-143 l-19 -57 835 0 834 0 -1 313 c-1 171 -3 303 -6 292 -3 -11 -10 -24 -15
-30 -8 -7 -8 -6 -3 4 6 11 3 13 -13 9 -12 -4 -23 -2 -23 3 -1 5 -2 15 -3 22
-1 6 1 22 5 34 11 31 18 103 11 103 -4 0 -15 -12 -25 -25 -14 -20 -16 -34 -11
-68 9 -55 6 -209 -5 -220 -4 -4 -11 43 -15 105 -4 62 -13 142 -21 178 -7 35
-11 68 -9 72 3 4 2 8 -3 8 -7 0 -12 57 -13 155 -1 67 -17 61 -54 -19 -20 -43
-36 -80 -36 -83 0 -3 -9 -18 -21 -34 -18 -26 -22 -27 -36 -14 -8 8 -18 13 -22
10 -5 -2 -19 7 -32 22 -18 20 -20 25 -6 20 18 -7 24 7 7 18 -5 3 -7 13 -4 23
4 9 -3 4 -15 -13 -18 -25 -49 -112 -50 -138 -1 -4 -7 -23 -16 -43 -8 -19 -14
-38 -13 -42 3 -12 -24 -85 -44 -117 l-19 -30 5 72 c3 39 13 102 22 140 8 37
17 82 20 101 2 18 10 48 18 66 8 19 13 51 12 72 -2 22 2 48 7 59 10 19 9 19
-10 2 -11 -10 -28 -33 -39 -52 -16 -31 -45 -56 -43 -37 8 52 -34 -12 -59 -91
-30 -91 -40 -167 -41 -318 -1 -69 -6 -139 -11 -155 l-8 -29 -2 30 c-2 59 -11
151 -17 195 -3 25 -5 50 -3 55 2 6 4 33 5 60 5 114 31 257 56 314 11 24 18 46
15 48 -2 2 -26 -21 -54 -52 -28 -30 -53 -55 -56 -55 -17 0 45 182 71 208 20
20 33 49 26 56 -12 12 -21 6 -36 -27 -9 -18 -38 -63 -65 -100 -27 -36 -62 -97
-77 -134 -16 -37 -45 -109 -66 -158 -42 -102 -92 -281 -110 -398 -13 -85 -27
-103 -22 -29 1 26 4 81 7 122 2 41 7 83 11 93 4 9 5 24 1 32 -3 8 -1 15 5 15
6 0 9 6 6 14 -3 7 0 19 6 25 8 8 7 11 -3 11 -10 0 -9 4 3 18 10 10 17 30 17
45 0 14 5 29 11 32 6 4 8 13 5 21 -3 8 -1 14 3 14 5 0 12 7 15 16 4 10 2 13
-7 8 -9 -6 -9 -5 0 7 6 8 13 25 15 39 1 14 6 28 10 31 5 3 9 17 10 32 1 15 6
27 11 27 5 0 7 6 4 13 -2 6 4 23 13 37 10 14 18 30 19 35 1 6 10 20 21 32 11
13 23 35 26 50 7 25 6 27 -9 14 -9 -7 -14 -18 -10 -24 3 -5 1 -7 -4 -4 -14 9
-153 -147 -153 -172 0 -6 -4 -11 -8 -11 -9 0 -64 -114 -89 -185 -21 -61 -122
-490 -123 -525 -1 -8 -7 -28 -15 -45 l-15 -30 6 40 c4 22 8 49 9 60 2 11 10
58 19 105 17 94 26 159 32 235 2 28 4 50 4 50 1 0 3 19 6 43 2 24 9 52 15 63
5 11 7 29 3 41 -4 14 -2 18 5 14 6 -4 11 -4 12 1 0 4 2 24 4 43 5 45 9 62 18
78 5 6 6 12 2 12 -3 0 0 10 7 23 6 12 13 27 14 32 1 6 7 24 14 40 6 17 11 32
12 35 0 3 4 10 9 16 5 6 10 34 11 63 1 29 6 55 10 57 11 7 10 24 -2 24 -5 0
-19 -9 -30 -20z m705 -400 c3 -5 1 -10 -4 -10 -6 0 -11 5 -11 10 0 6 2 10 4
10 3 0 8 -4 11 -10z"/>
<path d="M5280 1197 c0 -13 -4 -27 -9 -32 -12 -14 -23 -65 -13 -65 10 0 32 39
36 64 1 10 8 21 14 25 7 4 5 11 -8 19 -18 11 -20 10 -20 -11z"/>
<path d="M5620 1213 c1 -21 38 -53 68 -59 41 -8 41 6 1 40 -29 24 -69 35 -69
19z"/>
<path d="M5734 1194 c3 -8 6 -18 6 -20 0 -2 5 -4 10 -4 16 0 11 27 -6 34 -12
5 -15 2 -10 -10z"/>
<path d="M958 1139 c-7 -4 -10 -11 -6 -14 8 -8 48 4 48 14 0 10 -26 10 -42 0z"/>
<path d="M1725 1045 c-17 -15 -22 -22 -12 -14 15 11 20 10 27 -1 7 -12 10 -12
15 2 14 35 -1 41 -30 13z"/>
<path d="M1040 1009 c0 -5 5 -7 10 -4 6 3 10 8 10 11 0 2 -4 4 -10 4 -5 0 -10
-5 -10 -11z"/>
<path d="M1116 907 c3 -10 9 -15 12 -12 3 3 0 11 -7 18 -10 9 -11 8 -5 -6z"/>
<path d="M4606 821 c-18 -20 -13 -47 6 -35 6 4 8 2 5 -3 -4 -6 0 -16 8 -23 10
-9 15 -9 15 -1 0 6 -5 11 -11 11 -5 0 -8 4 -4 9 3 5 1 12 -5 16 -18 11 -11 28
9 22 14 -3 18 -1 14 9 -7 19 -17 18 -37 -5z"/>
<path d="M4546 775 c6 -16 56 -17 51 -1 -2 6 -15 11 -29 12 -17 1 -25 -3 -22
-11z"/>
<path d="M4579 733 c-13 -16 -12 -17 4 -4 9 7 17 15 17 17 0 8 -8 3 -21 -13z"/>
<path d="M1 424 c0 -11 3 -14 6 -6 3 7 2 16 -1 19 -3 4 -6 -2 -5 -13z"/>
<path d="M270 20 c0 -5 5 -10 11 -10 5 0 7 5 4 10 -3 6 -8 10 -11 10 -2 0 -4
-4 -4 -10z"/>
</g>
</svg>
